<?xml version="1.0" encoding="UTF-8" standalone="no"?>
<!DOCTYPE svg  PUBLIC '-//W3C//DTD SVG 1.1//EN'  'http://www.w3.org/Graphics/SVG/1.1/DTD/svg11.dtd'>
<svg version="1.1" xmlns="http://www.w3.org/2000/svg">
<defs>
<font id="PoetsenOne-Regular" horiz-adv-x="619">
<font-face x-height="550" unicode-range="U+0020-0451" panose-1="2 1 8 3 3 0 0 13 2 3" underline-thickness="50" font-weight="400" font-family="PoetsenOne" units-per-em="1000" descent="-200" bbox="-149 -200 936 964" cap-height="710" underline-position="-150" ascent="800"/>
<missing-glyph/>
<glyph glyph-name="space" unicode=" " horiz-adv-x="215"/>
<glyph d="M205 100q0 -110 -99 -110q-77 0 -77 82q0 106 98 106q78 0 78 -78zM149 248q-47 0 -66 25q-16 21 -16 73q0 -17 26 365q1 22 5 26q3 3 16 3h59q102 0 102 -72q0 -53 -68 -400q-4 -20 -22 -20h-36z" glyph-name="exclam" unicode="!" horiz-adv-x="295"/>
<glyph d="M106 454q-45 0 -45 53l15 217q1 16 12 16h62q56 0 56 -39q0 -46 -38 -236q-2 -11 -12 -11h-50zM301 454q-45 0 -45 53l15 217q1 16 12 16h62q56 0 56 -39q0 -46 -38 -236q-2 -11 -12 -11h-50z" glyph-name="quotedbl" unicode='&quot;' horiz-adv-x="416"/>
<glyph d="M390 25q-18 20 -18 70l9 85h-119l-20 -160q-3 -20 -22 -20q-59 0 -80 25q-18 20 -18 70l9 85h-99q-11 0 -11 11q0 100 78 100h46q6 52 15 118h-96q-11 0 -11 11q0 100 78 100h42l20 161q3 29 26 29q55 0 78 -22q20 -19 20 -61l-13 -107h119l20 161q3 29 26 29 q55 0 78 -22q20 -19 20 -61l-13 -107h104q16 0 16 -14l-3 -30q-7 -67 -80 -67h-50l-15 -118h100q16 0 16 -14l-3 -30q-7 -67 -80 -67h-47l-20 -160q-3 -20 -22 -20q-59 0 -80 25zM276 291h119q6 52 15 118h-119z" glyph-name="numbersign" unicode="#" horiz-adv-x="690"/>
<glyph d="M110 645q53 52 142 69l3 34q1 21 3 31q5 32 22 32q48 0 68 -24q17 -22 17 -70q139 -21 139 -145q0 -115 -120 -115q-28 0 -28 18q0 93 -64 93q-33 0 -57 -20q-25 -20 -25 -50q0 -35 44 -61q-5 3 96 -44q139 -65 139 -193q0 -82 -46 -137q-49 -58 -138 -70l-8 -77 q-2 -20 -22 -20q-47 0 -66 25q-16 22 -16 74q-72 12 -122 45q-47 31 -47 60q0 124 35 124q11 0 65 -39t108 -39q75 0 75 51q0 32 -40 55q-14 7 -42 18q-36 15 -47 21q-130 59 -130 192q0 100 62 162z" glyph-name="dollar" unicode="$" horiz-adv-x="528"/>
<glyph d="M149 -3q-5 6 -5 27q0 19 21 58q17 32 372 599q18 29 55 29q26 0 34 -9q6 -8 6 -28q0 -18 -19 -54q-11 -21 -382 -612q-12 -20 -52 -20q-23 0 -30 10zM343 583q0 -73 -30 -123q-43 -69 -136 -69q-134 0 -134 143q0 80 36 128q44 58 135 58q129 0 129 -137zM147 540 q0 -64 39 -64q29 0 43 40q10 28 10 63q0 56 -35 56q-57 0 -57 -95zM744 182q0 -73 -30 -123q-43 -69 -136 -69q-134 0 -134 143q0 80 36 128q44 58 135 58q129 0 129 -137zM548 139q0 -64 39 -64q29 0 43 40q10 28 10 63q0 56 -35 56q-57 0 -57 -95z" glyph-name="percent" unicode="%" horiz-adv-x="781"/>
<glyph d="M272 544q-21 -25 -21 -60q0 -71 73 -71h332q15 0 17 -14l-2 -42q-2 -31 -17 -42q-18 -11 -69 -11q-23 -314 -316 -314q-244 0 -244 202q0 134 126 193q-65 49 -65 132q0 84 69 141q75 63 202 63q99 0 149 -40q44 -35 44 -95q0 -101 -129 -101q-14 0 -18 12q-6 76 -67 76 q-40 0 -64 -29zM234 161q24 -25 65 -25q103 0 124 168h-131q-38 0 -61 -25q-21 -23 -21 -58q0 -36 24 -60z" glyph-name="ampersand" unicode="&amp;" horiz-adv-x="679"/>
<glyph d="M106 454q-45 0 -45 53l15 217q1 16 12 16h62q56 0 56 -39q0 -46 -38 -236q-2 -11 -12 -11h-50z" glyph-name="quotesingle" unicode="&apos;" horiz-adv-x="221"/>
<glyph d="M231 473q-34 -108 -34 -294q0 -111 15 -159q14 -50 50 -50q12 0 30 6t22 6q17 0 17 -45q0 -123 -104 -123q-197 0 -197 375q0 254 84 402q82 145 220 145q54 0 75 -15q19 -13 19 -44q0 -16 -12 -59q-14 -50 -26 -50q-4 0 -27 7q-24 6 -39 6q-59 0 -93 -108z" glyph-name="parenleft" unicode="(" horiz-adv-x="410"/>
<glyph d="M173 77q34 108 34 294q0 111 -14 159q-15 50 -51 50q-12 0 -30 -6t-22 -6q-17 0 -17 45q0 123 104 123q207 0 207 -375q0 -253 -89 -402q-86 -145 -225 -145q-54 0 -75 15q-19 13 -19 44q0 16 12 59q14 50 26 50q4 0 27 -6q24 -7 39 -7q59 0 93 108z" glyph-name="parenright" unicode=")" horiz-adv-x="419"/>
<glyph d="M360 429q0 -24 -30 -53q-32 -29 -63 -29q-30 0 -36 42l-4 102q-8 -12 -24 -39q-13 -22 -20 -31q-20 -28 -46 -28q-29 0 -57 23q-27 22 -27 44q0 23 40 44q-12 -7 88 38l-91 22q-26 11 -26 45q0 39 22 66q18 23 39 23q19 0 96 -93q-7 30 -7 69q0 76 85 76q57 0 57 -37 q0 -19 -66 -120q107 42 102 42q22 0 40 -25q19 -26 19 -60q0 -50 -49 -50q4 0 -108 21q66 -82 66 -92z" glyph-name="asterisk" unicode="*" horiz-adv-x="464"/>
<glyph d="M185 128q-20 21 -20 70q0 23 5 78h-133q-11 0 -11 11l2 41q4 70 72 70h80q9 111 11 144q1 21 5 25q3 4 18 4q58 0 82 -24q20 -21 20 -67q0 -26 -5 -82h131q16 0 16 -14l-3 -41q-5 -67 -76 -67h-79l-12 -153q-1 -20 -22 -20q-58 0 -81 25z" glyph-name="plus" unicode="+" horiz-adv-x="481"/>
<glyph d="M21 59q0 119 106 119q75 0 75 -107q0 -98 -39 -176q-41 -80 -97 -80q-47 0 -47 61q0 2 37 40q38 38 39 74q-74 0 -74 69z" glyph-name="comma" unicode="," horiz-adv-x="259"/>
<glyph d="M59 209q-11 0 -11 11l3 54q4 70 72 70h272q16 0 16 -14l-4 -54q-5 -67 -76 -67h-272z" glyph-name="hyphen" unicode="-" horiz-adv-x="462"/>
<glyph d="M198 100q0 -110 -98 -110q-78 0 -78 82q0 106 98 106q78 0 78 -78z" glyph-name="period" unicode="." horiz-adv-x="251"/>
<glyph d="M37 -2q-21 11 -21 43q0 50 188 640q9 29 38 29q47 0 64 -13q12 -11 12 -38q0 -52 -184 -631q-8 -25 -19 -32q-8 -6 -31 -6q-34 0 -47 8z" glyph-name="slash" unicode="/" horiz-adv-x="329"/>
<glyph d="M621 416q0 -164 -59 -273q-82 -153 -265 -153q-254 0 -254 317q0 177 72 285q87 129 263 129q243 0 243 -305zM251 473q-22 -62 -22 -152q0 -175 87 -175q65 0 97 100q22 71 22 162q0 158 -78 158q-74 0 -106 -93z" glyph-name="zero" unicode="0" horiz-adv-x="658"/>
<glyph d="M173 710h60q103 0 103 -84q0 -228 -41 -611q-1 -15 -16 -15h-55q-58 0 -82 24q-22 23 -22 76q0 24 32 434q-19 -22 -48 -22q-35 0 -58 34q-20 29 -20 60q0 14 91 70q58 34 56 34z" glyph-name="one" unicode="1" horiz-adv-x="385"/>
<glyph d="M424 283q-34 -37 -169 -143h254q16 0 16 -14l-4 -59q-5 -67 -76 -67h-328q-50 0 -71 17q-21 16 -21 56v60q0 11 7 23q8 15 180 158q151 126 151 199q0 60 -72 60q-70 0 -85 -132q-3 -18 -32 -18q-111 0 -111 107q0 96 82 147q70 44 175 44q122 0 181 -62q46 -50 46 -126 q0 -123 -123 -250z" glyph-name="two" unicode="2" horiz-adv-x="579"/>
<glyph d="M206 527q-4 -12 -18 -12q-110 0 -110 77q0 58 65 94q64 35 163 35q216 0 216 -177q0 -101 -92 -159q90 -43 90 -134q0 -98 -72 -171q-88 -90 -250 -90q-188 0 -188 120q0 94 121 94q17 0 19 -12q12 -46 79 -46q56 0 84 37q21 27 21 61q0 29 -21 47q-18 16 -43 17l-143 6 q-16 0 -16 14l3 28q3 33 18 48q17 17 59 19l90 4q72 3 72 81q0 65 -65 65q-63 0 -82 -46z" glyph-name="three" unicode="3" horiz-adv-x="565"/>
<glyph d="M106 192q-86 0 -86 59q0 16 56 217q40 145 40 201q0 41 16 41h45q56 0 79 -20q21 -20 21 -68q0 -52 -61 -292h134q19 228 22 280l4 85q1 15 16 15h55q60 0 82 -25q19 -20 19 -70q0 -236 -39 -600q-1 -15 -16 -15h-55q-104 0 -104 85q0 22 5 107h-233z" glyph-name="four" unicode="4" horiz-adv-x="599"/>
<glyph d="M88 22q-68 34 -68 94q0 88 121 88q14 0 18 -12q11 -46 87 -46q55 0 84 38q23 31 23 76q0 80 -66 80q-42 0 -54 -37q-4 -16 -15 -16h-55q-55 0 -76 20q-19 17 -19 57q0 72 37 331q2 15 17 15h382q16 0 16 -14l-4 -59q-5 -67 -76 -67h-181l-21 -152q30 28 99 28 q86 0 137 -54q50 -54 50 -141q0 -105 -67 -177q-77 -84 -217 -84q-90 0 -152 32z" glyph-name="five" unicode="5" horiz-adv-x="561"/>
<glyph d="M259 501q-26 -49 -26 -112q0 -14 4 -19q39 44 42 46q49 40 117 40q77 0 125 -42q57 -50 57 -149q0 -119 -76 -194q-81 -81 -222 -81q-136 0 -192 88q-45 71 -45 211q0 191 72 302q85 130 257 130q101 0 154 -34q48 -31 48 -86q0 -93 -122 -93q-17 0 -17 12q0 46 -74 46 q-67 0 -102 -65zM253 295q-20 -33 -20 -75q0 -74 60 -74q50 0 78 46q21 35 21 78q0 66 -67 66q-47 0 -72 -41z" glyph-name="six" unicode="6" horiz-adv-x="616"/>
<glyph d="M190 0h-36q-113 0 -113 64q0 27 93 198q78 143 160 308h-238q-11 0 -11 14l3 56q4 70 72 70h372q16 0 16 -14l-4 -54q-2 -23 -12 -43q-224 -452 -281 -584q-7 -15 -21 -15z" glyph-name="seven" unicode="7" horiz-adv-x="492"/>
<glyph d="M493 83q-81 -93 -225 -93q-111 0 -175 55q-61 53 -61 140q0 114 107 184q-67 29 -67 126q0 90 60 151q70 73 203 73q114 0 171 -55q47 -46 47 -124q0 -92 -80 -145q87 -43 87 -137q0 -98 -67 -175zM223 222q0 -76 62 -76q46 0 68 45q16 31 16 74q0 67 -58 67 q-88 0 -88 -110zM271 544q-14 -26 -14 -60q0 -60 52 -60q41 0 60 36q15 26 15 63q0 56 -55 56q-39 0 -58 -35z" glyph-name="eight" unicode="8" horiz-adv-x="603"/>
<glyph d="M357 214q35 53 35 118q0 14 -4 19q-34 -40 -44 -48q-48 -38 -116 -38q-75 0 -123 42q-58 50 -58 149q0 115 71 187q76 78 210 78q138 0 197 -89q47 -71 47 -207q0 -191 -80 -305q-91 -130 -273 -130q-178 0 -178 119q0 94 122 94q15 0 17 -12q5 -28 13 -36q10 -10 36 -10 q84 0 128 69zM365 423q17 29 17 67q0 75 -66 75q-43 0 -66 -42q-17 -31 -17 -70q0 -68 63 -68q45 0 69 38z" glyph-name="nine" unicode="9" horiz-adv-x="608"/>
<glyph d="M209 100q0 -110 -98 -110q-78 0 -78 82q0 106 98 106q78 0 78 -78zM234 396q0 -110 -98 -110q-78 0 -78 82q0 106 98 106q78 0 78 -78z" glyph-name="colon" unicode=":" horiz-adv-x="279"/>
<glyph d="M233 396q0 -110 -98 -110q-78 0 -78 82q0 106 98 106q78 0 78 -78zM34 59q0 119 106 119q75 0 75 -107q0 -98 -39 -176q-41 -80 -97 -80q-47 0 -47 61q0 2 37 40q38 38 39 74q-74 0 -74 69z" glyph-name="semicolon" unicode=";" horiz-adv-x="283"/>
<glyph d="M359 245q10 -6 10 -20q-5 -109 -48 -109q-36 0 -151 72q-108 68 -134 98q-8 10 -8 25l4 61q1 21 20 36q40 30 166 95q136 71 167 71q12 0 12 -13q0 -69 -13 -97q-10 -23 -41 -40q-39 -22 -185 -79q107 -54 201 -100z" glyph-name="less" unicode="&lt;" horiz-adv-x="429"/>
<glyph d="M93 354q-11 0 -11 11l3 54q4 70 72 70h322q16 0 16 -14l-4 -54q-5 -67 -76 -67h-322zM57 94q-11 0 -11 11l3 54q4 70 72 70h322q16 0 16 -14l-4 -54q-5 -67 -76 -67h-322z" glyph-name="equal" unicode="=" horiz-adv-x="543"/>
<glyph d="M76 445q-10 6 -10 20q5 109 48 109q36 0 151 -72q108 -68 134 -98q8 -10 8 -25l-4 -61q-1 -21 -20 -36q-40 -30 -166 -95q-136 -71 -167 -71q-12 0 -12 13q0 69 13 97q10 23 41 40q39 22 185 79q-107 54 -201 100z" glyph-name="greater" unicode="&gt;" horiz-adv-x="431"/>
<glyph d="M313 100q0 -110 -99 -110q-77 0 -77 82q0 106 98 106q78 0 78 -78zM285 248h-36q-73 0 -73 57q0 47 85 125q84 78 84 123q0 65 -66 65q-47 0 -70 -39q-14 -23 -24 -78q-4 -18 -29 -18q-112 0 -112 88t81 137q71 43 178 43t164 -54q51 -48 51 -124q0 -83 -87 -170 q-109 -110 -121 -135q-10 -20 -25 -20z" glyph-name="question" unicode="?" horiz-adv-x="528"/>
<glyph d="M346 305q-10 -33 -10 -73q0 -71 45 -71q41 0 63 48q18 40 18 93q0 66 -46 66q-50 0 -70 -63zM108 -17q-79 86 -79 240q0 177 102 284q110 115 312 115q178 0 261 -91q68 -76 68 -206q0 -114 -51 -181q-56 -74 -164 -74q-114 0 -114 59q-45 -58 -111 -58q-115 0 -115 160 q0 107 47 168q47 59 129 59q66 0 82 -58q3 51 17 51h31q61 0 61 -48q0 -14 -12 -96q-12 -83 -12 -110q0 -39 30 -39q33 0 51 46q17 42 17 104q0 209 -221 209q-148 0 -223 -90q-64 -78 -64 -204q0 -226 212 -226q49 0 86 15q37 14 43 14q16 0 16 -22q0 -33 -14 -59 q-30 -54 -145 -54q-157 0 -240 92z" glyph-name="at" unicode="@" horiz-adv-x="799"/>
<glyph glyph-name="A" unicode="A" d="M366 710q45 0 69 -34q17 -23 30 -77q134 -540 134 -575q0 -24 -27 -24h-51q-79 0 -107 41q-20 28 -30 113h-174l-33 -138q-5 -16 -23 -16h-53q-37 0 -64 15q-31 18 -31 51q0 61 97 318q90 237 129 307q11 19 39 19h95zM246 299h115l-42 264z"/>
<glyph d="M91 19q-40 27 -40 89q0 26 19 269q20 263 20 281q0 34 2 42q3 9 16 10q125 8 173 8q285 0 285 -182q0 -137 -106 -164q106 -33 106 -158q0 -224 -318 -224q-113 0 -157 29zM245 294l-11 -163q36 -11 65 -11q97 0 97 92q0 88 -91 88q-25 0 -60 -6zM255 438q32 -8 57 -8 q94 0 94 74q0 76 -91 76q-20 0 -52 -5q-7 -127 -8 -137z" glyph-name="B" unicode="B" horiz-adv-x="605"/>
<glyph d="M469 185q55 39 67 39q20 0 20 -30q0 -27 -15 -89q-10 -41 -62 -74q-64 -41 -157 -41q-120 0 -193 66q-90 81 -90 250q0 150 58 257q86 157 279 157q113 0 174 -53q56 -48 56 -127q0 -123 -144 -123q-33 0 -33 18q-2 80 -9 101q-12 31 -53 31q-82 0 -118 -97 q-23 -63 -23 -154t31 -131q29 -39 94 -39q64 0 118 39z" glyph-name="C" unicode="C" horiz-adv-x="617"/>
<glyph d="M109 710q51 0 127 5q77 4 94 4q168 0 236 -70q65 -68 65 -230q0 -188 -74 -296q-91 -133 -286 -133q-117 0 -159 14q-61 21 -61 85q0 51 19 272q14 172 22 334q1 15 17 15zM449 397q0 89 -25 126q-27 42 -97 42l-69 -4q-6 -135 -27 -410q20 -3 47 -3q171 0 171 249z" glyph-name="D" unicode="D" horiz-adv-x="666"/>
<glyph d="M155 0q-104 0 -104 85q0 42 21 310t21 300q0 15 16 15h352q16 0 16 -14l-4 -59q-5 -67 -76 -67h-138l-10 -141h142q16 0 16 -14l-4 -59q-5 -67 -76 -67h-87l-11 -149h220q16 0 16 -14l-4 -59q-5 -67 -76 -67h-230z" glyph-name="E" unicode="E" horiz-adv-x="501"/>
<glyph d="M240 289l-19 -274q-1 -15 -11 -15h-55q-104 0 -104 85q0 42 21 310t21 300q0 15 16 15h352q16 0 16 -14l-4 -59q-5 -67 -76 -67h-138l-10 -141h142q16 0 16 -14l-4 -59q-5 -67 -76 -67h-87z" glyph-name="F" unicode="F" horiz-adv-x="464"/>
<glyph d="M495 0q-95 0 -99 75q-26 -85 -149 -85q-88 0 -142 67q-64 80 -64 245q0 157 57 260q86 158 290 158q101 0 161 -42q59 -42 59 -114q0 -117 -145 -117q-21 0 -26 4q-5 3 -6 14l-7 69q-10 33 -51 33q-85 0 -122 -96q-23 -62 -23 -154q0 -171 88 -171q87 0 95 74l6 56 q7 66 32 66h55q48 0 64 -24q15 -21 15 -81q0 -145 -16 -222q-2 -15 -17 -15h-55z" glyph-name="G" unicode="G" horiz-adv-x="640"/>
<glyph d="M515 0q-104 0 -104 85q0 31 13 204h-178l-20 -274q-1 -15 -16 -15h-55q-104 0 -104 85q0 42 21 310t21 300q0 15 16 15h55q59 0 82 -26q21 -23 21 -77q0 -8 -11 -173h179q18 236 18 261q0 15 16 15h55q59 0 82 -26q21 -23 21 -77q0 -168 -41 -592q-1 -15 -16 -15h-55z " glyph-name="H" unicode="H" horiz-adv-x="674"/>
<glyph d="M155 0q-104 0 -104 85q0 42 21 310t21 300q0 15 16 15h55q59 0 82 -26q21 -23 21 -77q0 -168 -41 -592q-1 -15 -16 -15h-55z" glyph-name="I" unicode="I" horiz-adv-x="314"/>
<glyph d="M223 205q13 37 25 138q3 28 23 343q1 24 16 24h55q97 0 97 -61q0 -163 -17 -323q-16 -148 -59 -225q-63 -111 -195 -111q-80 0 -129 38q-46 36 -46 90q0 47 35 76q33 27 79 27q4 0 16 -37q11 -38 42 -38q39 0 58 59z" glyph-name="J" unicode="J" horiz-adv-x="479"/>
<glyph d="M562 20q-40 -30 -83 -30q-67 0 -115 88q-33 59 -81 220l-38 -25l-19 -258q-1 -15 -16 -15h-55q-104 0 -104 89q0 32 20 288q20 261 22 318q0 15 16 15h55q60 0 82 -25q19 -20 19 -70q0 -48 -10 -190q64 79 197 257q29 38 49 38q26 0 62 -47q36 -45 36 -74 q0 -65 -201 -219q200 -326 200 -315q0 -19 -36 -45z" glyph-name="K" unicode="K" horiz-adv-x="623"/>
<glyph d="M155 0q-104 0 -104 85q0 42 21 310t21 300q0 15 16 15h55q99 0 99 -85l-34 -485h180q16 0 16 -14l-4 -59q-5 -67 -76 -67h-190z" glyph-name="L" unicode="L" horiz-adv-x="448"/>
<glyph d="M606 289q-62 -193 -94 -272q-8 -17 -56 -17q-94 0 -113 51q-22 74 -55 241q-36 184 -51 241q0 -21 -5 -224q-6 -203 -6 -263q0 -46 -16 -46h-55q-104 0 -104 89q0 32 20 288q20 262 21 318q0 15 17 15h140q57 0 87 -28q28 -27 44 -90q11 -43 27 -160q21 -148 38 -238 q122 459 132 499q6 17 25 17h156q60 0 82 -25q19 -20 19 -70q0 -236 -39 -600q-1 -15 -16 -15h-55q-104 0 -104 81q0 19 18 193q19 186 22 259z" glyph-name="M" unicode="M" horiz-adv-x="908"/>
<glyph d="M499 0q-69 0 -90 42l-190 403l7 -430q0 -15 -16 -15h-55q-104 0 -104 89q0 32 20 288q20 252 22 318q0 15 16 15h80q60 0 89 -28q17 -17 36 -64q80 -201 156 -374l-3 457q0 9 17 9h55q61 0 83 -26q18 -20 18 -71q0 -300 -41 -597q0 -16 -18 -16h-82z" glyph-name="N" unicode="N" horiz-adv-x="688"/>
<glyph d="M678 416q0 -163 -65 -273q-90 -153 -289 -153q-284 0 -284 317q0 178 78 285q94 129 287 129q273 0 273 -305zM253 473q-27 -62 -27 -152q0 -175 117 -175q81 0 121 100q28 72 28 162q0 158 -108 158q-92 0 -131 -93z" glyph-name="O" unicode="O" horiz-adv-x="711"/>
<glyph d="M155 0q-104 0 -104 89q0 55 20 288q20 232 21 318q0 15 15 15q36 0 119 5t111 5q240 0 240 -228q0 -128 -64 -209q-73 -93 -209 -93q-43 0 -73 9l-14 -184q-1 -15 -16 -15h-46zM254 565q-3 -82 -13 -228q28 -7 56 -7q61 0 90 57q20 40 20 95q0 88 -90 88q-23 0 -63 -5z " glyph-name="P" unicode="P" horiz-adv-x="588"/>
<glyph d="M511 -163q-41 -31 -89 -31q-60 0 -99 54q-30 41 -60 133q-223 25 -223 313q0 177 75 286q90 129 270 129q263 0 263 -303q0 -134 -43 -235q-57 -136 -182 -177q122 -122 122 -124q0 -19 -34 -45zM250 473q-24 -64 -24 -155q0 -172 101 -172q74 0 110 100q25 72 25 166 q0 154 -98 154q-78 0 -114 -93z" glyph-name="Q" unicode="Q" horiz-adv-x="682"/>
<glyph d="M155 0q-104 0 -104 89q0 32 20 288l17 263q3 46 6 58t13 12q46 0 126 5t104 5q240 0 240 -223q0 -171 -130 -232l84 -120q47 -68 47 -80q0 -19 -34 -44q-40 -31 -92 -31q-95 0 -155 250q-36 2 -59 7q-10 -150 -17 -232q-1 -15 -16 -15h-50zM258 565q-3 -70 -11 -187 q35 -8 61 -8q99 0 99 115q0 85 -90 85q-22 0 -59 -5z" glyph-name="R" unicode="R" horiz-adv-x="617"/>
<glyph d="M465 679q46 -39 46 -107q0 -115 -120 -115q-28 0 -28 18q0 93 -64 93q-33 0 -57 -20q-25 -20 -25 -50q0 -35 44 -61q-5 3 96 -44q139 -65 139 -193q0 -93 -57 -149q-62 -61 -174 -61q-93 0 -167 39q-67 35 -67 71q0 124 35 124q11 0 65 -39t108 -39q75 0 75 51 q0 32 -40 55q-14 7 -42 18q-36 15 -47 21q-130 59 -130 192q0 120 88 183q73 54 183 54q91 0 139 -41z" glyph-name="S" unicode="S" horiz-adv-x="541"/>
<glyph d="M375 570l-38 -555q-1 -15 -11 -15h-55q-104 0 -104 85q0 20 34 485h-160q-11 0 -11 14l3 56q4 70 67 70h447q16 0 16 -14l-4 -59q-5 -67 -76 -67h-108z" glyph-name="T" unicode="T" horiz-adv-x="544"/>
<glyph d="M298 -10q-123 0 -186 69q-55 62 -55 168q0 53 15 233l18 220q1 30 17 30h55q59 0 82 -26q21 -23 21 -77l-10 -158q-11 -155 -11 -175q0 -128 72 -128q97 0 111 197q24 297 24 336q0 31 16 31h55q61 0 83 -22q15 -16 15 -50q0 -142 -17 -312q-34 -336 -305 -336z" glyph-name="U" unicode="U" horiz-adv-x="659"/>
<glyph d="M448 681q5 19 12 24q7 6 29 6q131 0 131 -74q0 -64 -95 -317q-88 -235 -126 -301q-11 -19 -39 -19h-105q-45 0 -69 35q-17 24 -30 78q-131 550 -131 577q0 22 70 22q74 0 107 -30q25 -24 33 -77q50 -320 72 -456q59 198 141 532z" glyph-name="V" unicode="V" horiz-adv-x="623"/>
<glyph d="M759 681q3 19 10 24q8 6 35 6q132 0 132 -77q0 -59 -74 -324q-71 -254 -92 -291q-11 -19 -39 -19h-95q-87 0 -99 113l-50 449q-67 -498 -89 -543q-9 -19 -39 -19h-95q-45 0 -69 35q-17 24 -30 78q-133 536 -133 572q0 17 11 22q10 5 44 5q82 0 117 -25q33 -23 40 -82 q30 -269 52 -456q43 247 80 541q2 20 77 20q80 0 114 -20t48 -75q12 -49 53 -466q36 184 91 532z" glyph-name="W" unicode="W" horiz-adv-x="946"/>
<glyph d="M541 -1q-130 0 -160 63l-84 175l-69 -108q-48 -77 -74 -116q-17 -23 -41 -23q-28 0 -64 53q-35 51 -35 88q0 76 221 226q-195 330 -195 338q0 15 66 15q79 0 120 -22q41 -23 66 -81l55 -125q30 39 70 101q53 81 84 125q9 12 25 12q33 0 70 -55q34 -51 34 -84 q0 -70 -220 -217q16 -31 115 -190q79 -127 79 -153q0 -22 -63 -22z" glyph-name="X" unicode="X" horiz-adv-x="640"/>
<glyph d="M296 0q-58 0 -82 24q-22 21 -22 72q0 42 11 173q-25 46 -57 117q-127 289 -127 305q0 21 67 21q75 0 109 -31q22 -21 39 -76q35 -118 77 -248q78 165 131 324q10 30 33 30q38 0 74 -9q65 -16 65 -54q0 -49 -85 -199q-84 -149 -148 -216q-4 -129 -14 -218q-1 -15 -16 -15 h-55z" glyph-name="Y" unicode="Y" horiz-adv-x="609"/>
<glyph d="M18 0q-11 0 -11 11l3 54q3 33 12 45q11 20 99 155q92 140 185 305h-228q-11 0 -11 14l3 56q4 70 72 70h382q16 0 16 -14l-4 -54q-1 -25 -12 -43q-234 -381 -284 -459h254q16 0 16 -14l-4 -59q-5 -67 -76 -67h-412z" glyph-name="Z" unicode="Z" horiz-adv-x="554"/>
<glyph d="M114 -185q-81 0 -81 85q0 55 33 477q23 293 23 348q0 15 16 15h287q16 0 16 -14l-4 -59q-5 -67 -76 -67h-92q-20 -326 -44 -645h141q16 0 16 -14l-4 -59q-5 -67 -76 -67h-155z" glyph-name="bracketleft" unicode="[" horiz-adv-x="400"/>
<glyph d="M168 -4q-9 6 -13 32q-98 614 -98 604q0 43 12 57q17 21 74 21q29 0 34 -29q99 -553 99 -616q0 -48 -22 -64q-16 -11 -55 -11q-23 0 -31 6z" glyph-name="backslash" unicode="\" horiz-adv-x="329"/>
<glyph d="M278 740q84 0 84 -85q0 -55 -33 -477q-23 -293 -23 -348q0 -15 -16 -15h-287q-16 0 -16 14l4 59q5 67 76 67h92l43 645h-140q-16 0 -16 14l4 59q5 67 76 67h152z" glyph-name="bracketright" unicode="]" horiz-adv-x="400"/>
<glyph d="M235 300q-128 -152 -165 -152q-12 0 -32 19q-18 17 -18 24q0 11 162 206q13 15 66 15q44 0 53 -15q120 -199 120 -206q0 -6 -21 -24q-22 -19 -34 -19q-36 0 -131 152z" glyph-name="asciicircum" unicode="^" horiz-adv-x="457"/>
<glyph d="M35 -150q-11 0 -11 11l3 54q4 70 72 70h332q16 0 16 -14l-4 -54q-5 -67 -76 -67h-332z" glyph-name="underscore" unicode="_" horiz-adv-x="526"/>
<glyph d="M65 680q-55 65 -55 88q0 17 43 39q41 22 67 22q15 0 21 -15q60 -156 60 -151q0 -12 -22 -30t-35 -18q-23 0 -79 65z" glyph-name="grave" unicode="`" horiz-adv-x="211"/>
<glyph d="M93 264q82 51 238 55q2 28 2 37q0 70 -62 70q-38 0 -55 -22q-11 -15 -22 -59q-3 -14 -31 -14q-102 0 -102 77q0 66 57 108q62 44 172 44q211 0 211 -176q0 -15 -8 -99q-9 -84 -9 -99q0 -39 30 -50q29 -11 29 -16q0 -52 -25 -87q-32 -43 -95 -43q-88 0 -104 87 q-61 -87 -163 -87q-145 0 -145 133q0 90 82 141zM183 164q0 -41 46 -41q35 0 60 29q29 31 33 85q-139 0 -139 -73z" glyph-name="a" unicode="a" horiz-adv-x="563"/>
<glyph d="M45 215q0 26 17 245q17 220 17 251q0 21 3 25t18 4h39q104 0 104 -87q0 -30 -12 -181q50 88 146 88q188 0 188 -239q0 -129 -53 -212q-74 -119 -242 -119q-225 0 -225 225zM210 251q0 -128 76 -128q61 0 88 76q16 48 16 113q0 115 -75 115q-105 0 -105 -176z" glyph-name="b" unicode="b" horiz-adv-x="600"/>
<glyph d="M381 149q42 26 47 26q23 0 23 -30q0 -52 -32 -89q-57 -66 -162 -66q-91 0 -152 52q-76 65 -76 198q0 116 48 199q70 121 227 121q93 0 143 -42q46 -38 46 -102q0 -105 -130 -105q-26 0 -26 14q-1 58 -6 75q-9 27 -40 27q-92 0 -92 -177q0 -70 23 -99q21 -28 71 -28 q46 0 88 26z" glyph-name="c" unicode="c" horiz-adv-x="508"/>
<glyph d="M88 48q-58 65 -58 187q0 121 46 206q64 119 202 119q104 0 119 -78q3 59 8 122l7 107q1 22 5 26q3 3 16 3h39q104 0 104 -86q0 -154 -48 -634q-2 -20 -22 -20h-36q-100 0 -100 76q-40 -86 -146 -86q-85 0 -136 58zM211 263q0 -140 80 -140q45 0 72 42q29 46 29 132 q0 130 -81 130q-100 0 -100 -164z" glyph-name="d" unicode="d" horiz-adv-x="608"/>
<glyph d="M107 39q-79 60 -79 185q0 118 52 206q76 130 245 130q188 0 188 -150q0 -117 -132 -165q-77 -28 -181 -28q0 -43 22 -70q25 -32 73 -32q40 0 64 28q24 27 33 27q21 0 43 -13q33 -20 33 -58q0 -54 -65 -84q-54 -25 -131 -25q-102 0 -165 49zM203 297q63 1 100 21 q39 21 39 57q0 52 -51 52q-72 0 -88 -130z" glyph-name="e" unicode="e" horiz-adv-x="532"/>
<glyph d="M248 346q-26 -341 -26 -326q-1 -20 -22 -20h-36q-97 0 -97 102q0 12 17 244h-47q-11 0 -11 11l3 54q4 68 66 70l4 40q12 125 74 179q55 50 163 50q185 0 185 -119q0 -96 -120 -96q-26 0 -26 14q0 38 -6 52q-8 19 -33 19q-64 0 -78 -139h115q16 0 16 -14l-4 -54 q-5 -67 -76 -67h-61z" glyph-name="f" unicode="f" horiz-adv-x="451"/>
<glyph d="M217 30q-184 0 -184 226q0 120 47 200q61 104 190 104q103 0 128 -82q-3 6 4 62q1 10 13 10h46q53 0 75 -21q24 -24 24 -82q0 -258 -44 -464q-38 -178 -270 -178q-99 0 -158 37q-53 33 -53 79q0 35 29 56q25 18 58 18q16 0 43 -32q27 -33 84 -33q119 0 119 188 q-49 -88 -151 -88zM389 316q0 111 -74 111q-63 0 -90 -67q-16 -42 -16 -98q0 -99 75 -99q105 0 105 153z" glyph-name="g" unicode="g" horiz-adv-x="607"/>
<glyph d="M392 359q0 67 -61 67q-47 0 -77 -45t-35 -120q-19 -261 -19 -241q0 -20 -22 -20h-36q-58 0 -82 25q-20 21 -20 70q0 19 13 170q17 201 31 446q1 22 5 26q3 3 16 3h39q104 0 104 -86q0 -31 -12 -182q53 88 159 88q86 0 125 -39q40 -42 40 -142q0 -23 -10 -144 q-13 -151 -17 -204q-1 -22 -6 -26q-4 -5 -21 -5h-32q-60 0 -83 23q-20 20 -20 65q0 14 2 36q19 209 19 235z" glyph-name="h" unicode="h" horiz-adv-x="608"/>
<glyph d="M144 0q-58 0 -82 25q-20 21 -20 70q0 6 30 426q1 22 5 26q3 3 16 3h39q58 0 82 -24q20 -21 20 -67q0 -40 -32 -439q-1 -20 -22 -20h-36zM102 731q29 23 78 23q82 0 82 -64q0 -38 -28 -61q-29 -25 -80 -25q-81 0 -81 64q0 40 29 63z" glyph-name="i" unicode="i" horiz-adv-x="281"/>
<glyph d="M71 535q0 9 3 12t19 3h36q47 0 78 -22q27 -20 27 -46q0 -24 -32 -453q-17 -224 -185 -224q-65 0 -112 22q-54 25 -54 68q0 41 48 59q30 11 66 11q2 0 12 -17q10 -18 26 -18q22 0 29 41q5 28 13 150zM90 731q29 23 78 23q82 0 82 -64q0 -38 -28 -61q-29 -25 -80 -25 q-81 0 -81 64q0 40 29 63z" glyph-name="j" unicode="j" horiz-adv-x="279"/>
<glyph d="M495 30q-28 -40 -67 -40q-87 0 -212 233l-16 -203q-1 -20 -22 -20h-36q-59 0 -82 25q-20 22 -20 73q0 12 10 125q15 176 34 488q1 22 5 26q3 3 16 3h39q104 0 104 -87q0 -20 -17 -254l160 146q15 14 28 14q20 0 48 -46q27 -45 27 -70q0 -53 -187 -133q209 -231 209 -229 q0 -20 -21 -51z" glyph-name="k" unicode="k" horiz-adv-x="539"/>
<glyph d="M68 24q-27 33 -27 109q0 11 12 147q16 181 30 431q1 22 5 26q3 3 16 3h39q104 0 104 -86q0 -40 -17 -240q-17 -199 -17 -237q0 -41 30 -53l30 -12q0 -121 -116 -121q-62 0 -89 33z" glyph-name="l" unicode="l" horiz-adv-x="302"/>
<glyph d="M207 93l-6 -73q-1 -20 -22 -20h-36q-58 0 -82 25q-20 21 -20 70q0 6 30 426q1 22 5 26q3 3 16 3h39q97 0 103 -82q50 92 153 92q131 0 151 -103q55 103 161 103q155 0 155 -141q0 -48 -10 -174l-17 -214q-1 -22 -6 -26q-4 -5 -21 -5h-32q-60 0 -83 23q-20 20 -20 65 q0 31 11 147q10 116 10 125q0 66 -51 66q-93 0 -109 -224q-9 -119 -12 -171q-1 -22 -6 -26q-4 -5 -21 -5h-32q-60 0 -83 23q-20 20 -20 65q0 27 11 139q10 111 10 133q0 66 -51 66q-91 0 -108 -246q-2 -35 -7 -87z" glyph-name="m" unicode="m" horiz-adv-x="902"/>
<glyph glyph-name="n" unicode="n" d="M393 221q10 104 10 138q0 67 -61 67q-69 0 -96 -79q-28 -79 -45 -327q-1 -20 -22 -20h-36q-58 0 -82 25q-20 21 -20 70q0 6 30 426q1 22 5 26q3 3 16 3h39q98 0 104 -84q56 94 171 94q86 0 125 -39q40 -42 40 -142q0 -36 -13 -186q-14 -149 -14 -162q0 -21 -5 -26 q-4 -5 -22 -5h-32q-60 0 -83 23q-20 20 -20 65q0 28 11 133z"/>
<glyph d="M29 240q0 138 64 220q77 100 236 100q235 0 235 -234q0 -128 -55 -215q-77 -121 -244 -121q-236 0 -236 250zM199 251q0 -128 81 -128q62 0 92 75q22 54 22 122q0 107 -82 107q-113 0 -113 -176z" glyph-name="o" unicode="o" horiz-adv-x="598"/>
<glyph d="M576 319q0 -152 -68 -242q-65 -87 -168 -87q-93 0 -130 88l-21 -243q-1 -20 -22 -20h-36q-58 0 -82 25q-20 21 -20 70q0 41 45 611q1 22 5 26q3 3 16 3h39q51 0 78 -23q25 -20 25 -53q44 86 150 86q189 0 189 -241zM215 263q0 -140 80 -140q45 0 72 42q29 46 29 132 q0 130 -82 130q-99 0 -99 -164z" glyph-name="p" unicode="p" horiz-adv-x="612"/>
<glyph d="M396 474q0 76 19 76h45q104 0 104 -86q0 -7 -11 -143q-16 -194 -34 -482q-1 -29 -21 -29h-39q-104 0 -104 87q0 30 12 181q-51 -88 -155 -88q-180 0 -180 245q0 159 64 243q63 82 180 82q99 0 120 -86zM208 252q0 -129 75 -129q63 0 89 76q16 47 16 112q0 116 -76 116 q-104 0 -104 -175z" glyph-name="q" unicode="q" horiz-adv-x="609"/>
<glyph d="M319 324l2 47q0 50 -30 50q-59 0 -70 -146q-19 -269 -19 -255q0 -20 -22 -20h-36q-58 0 -82 25q-20 21 -20 70q0 6 30 426q2 29 21 29h39q94 0 103 -76q43 86 135 86q43 0 74 -28q35 -32 35 -88t-31 -93q-33 -40 -84 -40q-45 0 -45 13z" glyph-name="r" unicode="r" horiz-adv-x="479"/>
<glyph d="M399 526q40 -31 40 -85q0 -90 -107 -90q-24 0 -24 14q-3 67 -58 67q-62 0 -62 -47q0 -27 37 -46q-8 4 82 -33q119 -50 119 -152q0 -74 -51 -118q-55 -46 -153 -46q-73 0 -134 18q-78 24 -78 66q0 23 14 47q18 29 44 29q10 0 45 -18q36 -19 87 -19q64 0 64 33q0 24 -34 42 l-75 31q-110 49 -110 156q0 95 73 144q62 41 156 41q81 0 125 -34z" glyph-name="s" unicode="s" horiz-adv-x="470"/>
<glyph d="M256 415q-19 -211 -19 -244q0 -43 26 -43q17 0 34 13q18 13 25 13q19 0 19 -45q0 -119 -133 -119q-141 0 -141 136q0 21 6 89q10 108 17 200h-53q-11 0 -11 14l3 51q4 70 72 70q58 147 67 147h29q74 0 74 -88q0 -20 -3 -59h105q16 0 16 -14l-4 -54q-5 -67 -76 -67h-53z " glyph-name="t" unicode="t" horiz-adv-x="399"/>
<glyph d="M222 327q-11 -110 -11 -129q0 -74 66 -74q69 0 94 156q8 52 14 134l8 116q2 20 22 20h36q58 0 82 -25q20 -21 20 -70q0 -6 -30 -426q-2 -21 -4 -25q-3 -4 -17 -4h-39q-98 0 -104 82q-53 -92 -154 -92q-74 0 -119 46q-42 44 -42 112q0 141 25 371q3 31 28 31h32 q59 0 83 -23q20 -19 20 -62q0 -29 -10 -138z" glyph-name="u" unicode="u" horiz-adv-x="600"/>
<glyph d="M366 526q3 15 9 19t26 4q148 0 148 -59q0 -47 -86 -243q-80 -183 -114 -232q-11 -15 -34 -15h-89q-57 0 -83 87q-70 241 -111 368l-23 72q3 23 33 23q95 0 132 -16q41 -17 50 -67l19 -144q18 -138 27 -196q16 56 96 399z" glyph-name="v" unicode="v" horiz-adv-x="560"/>
<glyph d="M646 526q3 23 43 23q139 0 139 -62q0 -53 -165 -457q-12 -30 -42 -30h-59q-84 0 -101 87q-25 129 -41 340q-6 -26 -41 -227q-29 -166 -38 -185q-7 -15 -34 -15h-70q-89 0 -111 87q-110 428 -110 440q0 23 32 23q91 0 126 -16q38 -17 45 -67q2 -19 11 -154q9 -156 13 -206 q54 280 79 419q4 24 53 24q73 0 106 -11q45 -16 57 -62q6 -19 39 -370q12 66 69 419z" glyph-name="w" unicode="w" horiz-adv-x="839"/>
<glyph d="M308 369q146 190 133 190q17 0 47 -39q34 -43 34 -81q0 -62 -155 -170q160 -240 160 -251q0 -18 -30 -18h-68q-93 0 -141 98l-40 80q-166 -189 -149 -189q-21 0 -51 27q-37 34 -37 79q0 43 42 83q36 36 134 95q-149 265 -149 256q0 21 63 21q72 0 109 -25q28 -19 52 -67z " glyph-name="x" unicode="x" horiz-adv-x="555"/>
<glyph d="M223 341q-10 -84 -10 -102q0 -75 64 -75q95 0 110 179l16 187q1 20 22 20h36q102 0 102 -83q0 -28 -30 -438q-16 -224 -268 -224q-100 0 -167 34q-66 33 -66 82q0 36 31 56q28 18 71 18q3 0 29 -32q26 -33 93 -33q116 0 116 188q-49 -88 -158 -88q-166 0 -166 188 q0 30 21 301q2 31 28 31h32q60 0 83 -23q20 -21 20 -69q0 -33 -9 -117z" glyph-name="y" unicode="y" horiz-adv-x="610"/>
<glyph d="M13 0q-11 0 -11 11l3 54q-1 -26 256 355h-188q-11 0 -11 14l3 46q4 70 72 70h342q16 0 16 -14l-4 -54q-1 -25 -20 -53q3 5 -82 -101q-91 -111 -154 -198h214q16 0 16 -14l-4 -49q-5 -67 -76 -67h-372z" glyph-name="z" unicode="z" horiz-adv-x="513"/>
<glyph d="M254 88q0 -72 14 -99q18 -34 68 -34h46q16 0 16 -14l-4 -59q-3 -36 -12 -48q-13 -19 -54 -19h-72q-155 0 -155 188l2 88q0 56 -15 83q-20 35 -70 35q-16 0 -16 14l7 112q1 14 18 14q57 0 81 63q15 41 29 167q8 77 61 119t139 42h89q30 0 30 -33l-3 -40q-3 -41 -24 -55 q-14 -9 -52 -12q-59 -5 -80 -41q-13 -25 -23 -108q-14 -118 -95 -162q76 -29 76 -147z" glyph-name="braceleft" unicode="{" horiz-adv-x="449"/>
<glyph d="M135 -185q-58 0 -82 25q-20 21 -20 70q0 -13 56 771q1 21 5 25q2 4 16 4h23q58 0 82 -24q20 -21 20 -67q0 -60 -58 -784q-1 -20 -22 -20h-20z" glyph-name="bar" unicode="|" horiz-adv-x="275"/>
<glyph d="M190 467q0 72 -14 100q-18 33 -68 33h-46q-16 0 -16 14l4 59q5 67 76 67h62q155 0 155 -188l-2 -88q0 -56 15 -83q20 -35 70 -35q16 0 16 -14l-7 -112q-1 -14 -18 -14q-57 0 -81 -62q-15 -42 -29 -168q-8 -77 -61 -119t-139 -42h-89q-30 0 -30 33l3 40q3 42 23 55 q13 9 53 12q59 5 80 41q13 25 23 108q14 118 95 162q-76 29 -76 147z" glyph-name="braceright" unicode="}" horiz-adv-x="449"/>
<glyph d="M494 341q32 30 41 30q20 0 20 -40q0 -59 -33 -97q-42 -48 -123 -48q-61 0 -134 33q-72 32 -98 32q-36 0 -64 -32q-28 -33 -38 -33q-20 0 -20 41q0 57 29 95q38 49 117 49q56 0 130 -30t103 -30q38 0 70 30z" glyph-name="asciitilde" unicode="~" horiz-adv-x="604"/>
<glyph glyph-name="uni00A0" unicode=" " horiz-adv-x="215"/>
<glyph d="M79 455q0 110 99 110q77 0 77 -82q0 -106 -98 -106q-78 0 -78 78zM135 307q47 0 66 -25q16 -21 16 -73l-26 -365q-2 -24 -4 -26q-3 -3 -17 -3h-59q-102 0 -102 72q0 53 68 400q4 20 22 20h36z" glyph-name="exclamdown" unicode="¡" horiz-adv-x="286"/>
<glyph d="M377 149q42 26 47 26q23 0 23 -30q0 -52 -32 -89q-39 -43 -108 -59l-8 -81q-2 -20 -22 -20q-47 0 -66 25q-16 21 -16 70v6q-170 36 -170 243q0 103 38 182q56 114 182 134l3 35q1 22 3 32q5 34 22 34q85 0 85 -91q0 -6 -1 -11q132 -23 132 -139q0 -105 -130 -105 q-26 0 -26 14q-1 58 -6 75q-9 27 -40 27q-92 0 -92 -177q0 -70 23 -99q21 -28 71 -28q46 0 88 26z" glyph-name="cent" unicode="¢" horiz-adv-x="511"/>
<glyph d="M26 0q-11 0 -11 14l6 92q0 5 38 30t43 89l5 68h-53q-11 0 -11 14l3 51q4 70 72 70l5 70q9 124 72 178q56 49 163 49q186 0 186 -124q0 -95 -120 -95q-26 0 -26 14q-1 41 -7 54q-7 17 -31 17q-46 0 -64 -54q-11 -30 -16 -109h140q16 0 16 -14l-4 -54q-5 -67 -76 -67h-87 l-6 -72q-5 -50 -59 -81h272q16 0 16 -14l-4 -59q-5 -67 -76 -67h-386z" glyph-name="sterling" unicode="£" horiz-adv-x="555"/>
<glyph d="M184 84q-86 -77 -102 -77q-17 0 -32 28q-13 24 -13 42q0 23 54 72q-35 48 -35 133q0 113 58 183q-58 70 -58 84q0 10 22 25q23 16 44 16q30 0 79 -58q64 28 153 28q110 0 170 -46q72 60 85 60q12 0 27 -26q14 -25 14 -44q0 -30 -67 -84q8 -34 8 -69q0 -117 -63 -192 q67 -78 67 -92q0 -12 -24 -27q-26 -15 -49 -15q-28 0 -86 70q-59 -25 -143 -25q-62 0 -109 14zM245 375q-19 -33 -19 -82q0 -90 80 -90q63 0 93 52q22 37 22 87q0 85 -83 85q-65 0 -93 -52z" glyph-name="currency" unicode="¤" horiz-adv-x="672"/>
<glyph d="M406 94q-4 -69 -5 -73q-3 -21 -17 -21h-55q-58 0 -82 23q-22 22 -22 71h-140q-11 0 -11 11l3 54q4 70 72 70h84l3 40l-9 15h-116q-11 0 -11 11l3 54q4 65 61 69q-112 256 -112 273q0 21 67 21q75 0 109 -31q22 -21 39 -76q35 -118 77 -248q78 165 131 324q10 30 33 30 q38 0 74 -9q65 -16 65 -54q0 -58 -102 -229h32q16 0 16 -14l-4 -54q-5 -67 -76 -67h-57q-27 -36 -42 -51v-4h137q16 0 16 -14l-4 -54q-5 -67 -76 -67h-81z" glyph-name="yen" unicode="¥" horiz-adv-x="658"/>
<glyph d="M170 315q-102 0 -102 84q0 12 20 282q1 21 5 25q2 4 16 4h23q102 0 102 -91q0 -8 -19 -284q-1 -20 -25 -20h-20zM134 -185q-102 0 -102 84q0 12 20 282q1 21 5 25q2 4 16 4h23q102 0 102 -79q0 -20 -19 -296q-1 -20 -25 -20h-20z" glyph-name="brokenbar" unicode="¦" horiz-adv-x="274"/>
<glyph d="M449 686q41 -31 41 -85q0 -90 -107 -90q-24 0 -24 14q-3 67 -57 67q-29 0 -50 -15q-22 -16 -22 -41q0 -30 39 -49q4 -2 85 -31q123 -43 123 -143q0 -110 -105 -147q59 -41 59 -113q0 -74 -51 -117q-55 -46 -157 -46q-80 0 -146 25q-62 23 -62 46q0 89 33 89q8 0 57 -18 q49 -19 102 -19q62 0 62 36q0 27 -36 44l-78 29q-114 43 -114 148q0 102 88 153q-42 39 -42 107q0 95 77 146q66 44 162 44q80 0 123 -34zM171 307q0 -43 43 -71q16 -10 80 -35q43 22 43 72q0 67 -128 106q-38 -21 -38 -72z" glyph-name="section" unicode="§" horiz-adv-x="516"/>
<glyph d="M24 734q24 21 65 21q69 0 69 -58q0 -34 -23 -55q-25 -23 -67 -23q-68 0 -68 58q0 36 24 57zM252 734q24 21 65 21q69 0 69 -58q0 -34 -23 -55q-25 -23 -67 -23q-68 0 -68 58q0 36 24 57z" glyph-name="dieresis" unicode="¨" horiz-adv-x="386"/>
<glyph d="M489 267q30 17 34 17q15 0 15 -19q0 -35 -22 -61q-40 -45 -119 -45q-63 0 -103 35q-52 44 -52 135q0 79 32 134q48 82 156 82q65 0 102 -29q34 -26 34 -69q0 -70 -93 -70q-18 0 -21 39t-28 39q-62 0 -62 -121q0 -85 64 -85q33 0 63 18zM601 179q67 82 67 213 q0 234 -232 234q-148 0 -228 -94q-69 -83 -69 -213q0 -233 238 -233q148 0 224 93zM693 630q76 -83 76 -234q0 -180 -103 -290q-108 -116 -299 -116q-166 0 -250 91q-79 84 -79 235q0 179 106 289q110 116 301 116q165 0 248 -91z" glyph-name="copyright" unicode="©" horiz-adv-x="803"/>
<glyph d="M95 551q52 34 147 36v20q0 27 -31 27q-25 0 -36 -20q-11 -21 -32 -21q-68 0 -68 40q0 34 35 57q40 26 107 26q133 0 133 -99q0 -12 -3 -60q-3 -49 -3 -58q0 -23 15 -27q15 -5 15 -18q0 -23 -16 -43q-22 -25 -62 -25q-49 0 -60 42q-34 -42 -96 -42q-95 0 -95 78 q0 55 50 87zM161 486q0 -23 24 -23q47 0 50 66q-74 0 -74 -43z" glyph-name="ordfeminine" unicode="ª" horiz-adv-x="394"/>
<glyph d="M290 194q10 -4 10 -15q0 -41 -12 -80q-15 -53 -42 -53q-30 0 -108 61q-69 54 -97 89q-8 9 -8 20q0 -13 7 106q1 22 19 36q187 146 252 146q12 0 12 -14q0 -122 -55 -157q-52 -32 -154 -58q97 -47 176 -81zM590 194q10 -4 10 -15q0 -41 -12 -80q-15 -53 -42 -53 q-30 0 -108 61q-69 54 -97 89q-8 9 -8 20q0 -13 7 106q1 22 19 36q187 146 252 146q12 0 12 -14q0 -122 -55 -157q-52 -32 -154 -58q97 -47 176 -81z" glyph-name="guillemotleft" unicode="«" horiz-adv-x="659"/>
<glyph d="M434 64q-20 14 -20 53l5 92h-372q-11 0 -11 11l3 54q4 70 72 70h426q16 0 16 -14l-17 -260q-1 -13 -5 -17q-5 -3 -24 -3q-53 0 -73 14z" glyph-name="logicalnot" unicode="¬" horiz-adv-x="613"/>
<glyph d="M59 209q-11 0 -11 11l3 54q4 70 72 70h272q16 0 16 -14l-4 -54q-5 -67 -76 -67h-272z" glyph-name="uni00AD" unicode="­" horiz-adv-x="462"/>
<glyph d="M601 179q67 82 67 213q0 234 -232 234q-148 0 -228 -94q-69 -83 -69 -213q0 -233 238 -233q148 0 224 93zM693 630q76 -83 76 -234q0 -180 -103 -290q-108 -116 -299 -116q-166 0 -250 91q-79 84 -79 235q0 179 106 289q110 116 301 116q165 0 248 -91zM321 163 q-62 0 -62 47q0 16 10 154q12 177 34 177q20 0 60 3q41 3 54 3q135 0 135 -119q0 -91 -69 -124l45 -64q25 -35 25 -43q0 -9 -22 -23q-25 -16 -52 -16q-53 0 -83 130q-13 0 -31 4q-7 -109 -7 -103q-2 -26 -11 -26h-26zM375 461l-5 -93q18 -5 32 -5q53 0 53 58q0 43 -48 43 q-14 0 -32 -3z" glyph-name="registered" unicode="®" horiz-adv-x="803"/>
<glyph d="M21 618q-11 0 -11 11q0 47 10 66q15 30 63 30h272q16 0 16 -14q0 -48 -13 -67q-17 -26 -65 -26h-272z" glyph-name="macron" unicode="¯" horiz-adv-x="381"/>
<glyph d="M50 551q0 70 38 113q46 52 138 52q140 0 140 -124q0 -65 -32 -107q-45 -59 -143 -59q-141 0 -141 125zM160 561q0 -41 42 -41q54 0 54 62q0 40 -39 40q-57 0 -57 -61z" glyph-name="degree" unicode="°" horiz-adv-x="380"/>
<glyph d="M209 189q-20 21 -20 70q0 23 5 78h-133q-11 0 -11 11l2 41q4 70 72 70h80q9 111 11 144q1 21 5 25q3 4 18 4q58 0 82 -24q20 -21 20 -67q0 -26 -5 -82h131q16 0 16 -14l-3 -41q-5 -67 -76 -67h-79l-12 -153q-1 -20 -22 -20q-58 0 -81 25zM26 0q-11 0 -11 11l2 41 q4 70 72 70h342q16 0 16 -14l-3 -41q-5 -67 -76 -67h-342z" glyph-name="plusminus" unicode="±" horiz-adv-x="513"/>
<glyph d="M159 473h135q7 0 7 -6l-2 -42q-2 -30 -54 -30h-168q-41 0 -41 33v42q0 4 3 10q4 6 92 58q77 46 77 73t-32 27q-26 0 -34 -26q-7 -26 -19 -26q-70 0 -70 48q0 43 43 66q37 20 93 20q122 0 122 -85q0 -67 -152 -162z" glyph-name="uni00B2" unicode="²" horiz-adv-x="318"/>
<glyph d="M130 628q-2 -6 -8 -6q-65 0 -65 40q0 26 32 42t81 16q117 0 117 -80q0 -42 -46 -71q45 -22 45 -61q0 -44 -37 -77q-45 -40 -128 -40q-94 0 -94 54q0 52 54 52q8 0 9 -5q6 -21 45 -21q53 0 53 31q0 25 -34 27l-75 3q-7 0 -7 6l2 15q5 36 34 37l51 2q32 2 32 27 q0 29 -29 29q-26 0 -32 -20z" glyph-name="uni00B3" unicode="³" horiz-adv-x="297"/>
<glyph d="M29 633q-19 17 -19 30l102 151q10 15 23 15q25 0 68 -21q44 -23 44 -39q0 -20 -81 -87q-82 -67 -105 -67q-14 0 -32 18z" glyph-name="acute" unicode="´" horiz-adv-x="257"/>
<glyph d="M230 327q-11 -109 -11 -128q0 -34 18 -55q17 -20 45 -20q86 0 99 160l20 246q1 20 22 20h36q58 0 82 -25q20 -21 20 -70q0 -6 -30 -426q-1 -21 -5 -25q-3 -4 -17 -4h-38q-100 0 -104 79q-46 -89 -115 -89q-34 0 -59 23v-178q0 -20 -22 -20h-36q-58 0 -82 25 q-20 21 -20 69q0 22 7 100q8 102 12 169q12 229 25 341q2 21 8 26q4 5 20 5h32q59 0 83 -23q20 -19 20 -62q0 -29 -10 -138z" glyph-name="mu" unicode="µ" horiz-adv-x="600"/>
<glyph d="M544 700q0 22 -26 -326l-26 -354q-1 -20 -24 -20q-70 0 -70 93q0 26 18 255l21 285h-38q0 22 -21 -259l-26 -354q-1 -20 -24 -20q-70 0 -70 93q0 26 5 92l9 121q-19 -4 -46 -4q-186 0 -186 192q0 104 58 164q59 62 166 62q47 0 138 -4q90 -4 130 -4q12 0 12 -12z" glyph-name="paragraph" unicode="¶" horiz-adv-x="588"/>
<glyph d="M215 289q0 -110 -98 -110q-78 0 -78 82q0 106 98 106q78 0 78 -78z" glyph-name="periodcentered" unicode="·" horiz-adv-x="260"/>
<glyph d="M124 -40q96 0 96 -65q0 -42 -34 -68q-34 -27 -88 -27q-88 0 -88 49q0 14 6 27q6 15 13 15q2 0 20 -13q17 -14 38 -14q34 0 34 21q0 18 -37 31q-38 12 -38 14q0 49 28 99l59 -5z" glyph-name="cedilla" unicode="¸" horiz-adv-x="230"/>
<glyph d="M101 710h47q47 0 47 -38q0 -14 -9 -142l-10 -133q0 -7 -7 -7h-45q-46 0 -46 45q0 41 14 181q-7 -10 -22 -10q-16 0 -26 20q-9 17 -9 36q0 4 41 32q18 12 25 16z" glyph-name="uni00B9" unicode="¹" horiz-adv-x="214"/>
<glyph d="M49 530q0 80 39 127q47 58 144 58q147 0 147 -135q0 -74 -34 -124q-48 -70 -149 -70q-147 0 -147 144zM163 547q0 -74 42 -74q32 0 48 36q11 25 11 57q0 62 -41 62q-60 0 -60 -81z" glyph-name="ordmasculine" unicode="º" horiz-adv-x="394"/>
<glyph d="M63 346q-10 4 -10 16q0 41 12 85q16 57 43 57q30 0 108 -61q69 -54 97 -89q8 -11 8 -20q0 8 -7 -106q-1 -22 -19 -36q-182 -146 -252 -146q-12 0 -12 14q0 110 55 147q62 42 155 68q-121 50 -178 71zM370 346q-10 4 -10 16q0 41 12 85q16 57 43 57q30 0 108 -61 q69 -54 97 -89q8 -11 8 -20q0 8 -7 -106q-1 -22 -19 -36q-182 -146 -252 -146q-12 0 -12 14q0 110 55 147q62 42 155 68q-121 50 -178 71z" glyph-name="guillemotright" unicode="»" horiz-adv-x="667"/>
<glyph d="M72 -3q-5 6 -5 27q0 19 21 58q17 32 372 599q18 29 55 29q26 0 34 -9q6 -8 6 -28q0 -18 -19 -54q-11 -21 -382 -612q-12 -20 -52 -20q-23 0 -30 10zM115 710h47q47 0 47 -38q0 -14 -9 -142l-10 -133q0 -7 -7 -7h-45q-46 0 -46 45q0 41 14 181q-7 -10 -22 -10 q-16 0 -26 20q-9 17 -9 36q0 4 41 32q18 12 25 16zM421 87q-39 0 -39 26l25 103q25 104 26 104h40q45 0 45 -40q0 -24 -28 -121h61l10 116q1 45 9 45h44q46 0 46 -43q0 -24 -9 -145l-9 -125q0 -7 -7 -7h-45q-47 0 -47 38l3 49h-125z" glyph-name="onequarter" unicode="¼" horiz-adv-x="702"/>
<glyph d="M72 -3q-5 6 -5 27q0 19 21 58q17 32 372 599q18 29 55 29q26 0 34 -9q6 -8 6 -28q0 -18 -19 -54q-11 -21 -382 -612q-12 -20 -52 -20q-23 0 -30 10zM115 710h47q47 0 47 -38q0 -14 -9 -142l-10 -133q0 -7 -7 -7h-45q-46 0 -46 45q0 41 14 181q-7 -10 -22 -10 q-16 0 -26 20q-9 17 -9 36q0 4 41 32q18 12 25 16zM590 134q-6 -5 -88 -56h135q7 0 7 -6l-2 -42q-2 -30 -54 -30h-168q-41 0 -41 33v42q0 10 86 59q86 48 86 77q0 27 -32 27q-26 0 -34 -26q-7 -26 -19 -26q-70 0 -70 48q0 43 43 66q37 20 93 20q122 0 122 -85 q0 -51 -64 -101z" glyph-name="onehalf" unicode="½" horiz-adv-x="694"/>
<glyph d="M105 -3q-5 6 -5 27q0 19 21 58q17 32 372 599q18 29 55 29q26 0 34 -9q6 -8 6 -28q0 -18 -19 -54q-11 -21 -382 -612q-12 -20 -52 -20q-23 0 -30 10zM454 87q-39 0 -39 26l25 103q25 104 26 104h40q45 0 45 -40q0 -24 -28 -121h61l10 116q1 45 9 45h44q46 0 46 -43 q0 -24 -9 -145l-9 -125q0 -7 -7 -7h-45q-47 0 -47 38l3 49h-125zM140 628q-2 -6 -8 -6q-65 0 -65 40q0 26 32 42t81 16q117 0 117 -80q0 -42 -46 -71q45 -22 45 -61q0 -44 -37 -77q-45 -40 -128 -40q-94 0 -94 54q0 52 54 52q8 0 9 -5q6 -21 45 -21q53 0 53 31q0 25 -34 27 l-75 3q-7 0 -7 6l2 15q5 36 34 37l51 2q32 2 32 27q0 29 -29 29q-26 0 -32 -20z" glyph-name="threequarters" unicode="¾" horiz-adv-x="733"/>
<glyph d="M208 455q0 110 99 110q77 0 77 -82q0 -106 -98 -106q-78 0 -78 78zM236 307h36q73 0 73 -57q0 -47 -84 -125q-85 -78 -85 -123q0 -65 66 -65q47 0 70 39q14 23 24 78q4 18 29 18q112 0 112 -88q0 -93 -81 -140q-69 -40 -178 -40q-215 0 -215 178q0 83 87 170 q109 110 121 135q9 20 25 20z" glyph-name="questiondown" unicode="¿" horiz-adv-x="525"/>
<glyph glyph-name="Agrave" unicode="À" d="M366 710q45 0 69 -34q17 -23 30 -77q134 -540 134 -575q0 -24 -27 -24h-51q-79 0 -107 41q-20 28 -30 113h-174l-33 -138q-5 -16 -23 -16h-53q-37 0 -64 15q-31 18 -31 51q0 61 97 318q90 237 129 307q11 19 39 19h95zM246 299h115l-42 264zM355 804q-13 -24 -28 -24 q-43 0 -112 30q-69 29 -69 46q0 24 31 64q32 40 49 40q14 0 79 -54q63 -53 63 -63q0 -18 -13 -39z"/>
<glyph glyph-name="Aacute" unicode="Á" d="M366 710q45 0 69 -34q17 -23 30 -77q134 -540 134 -575q0 -24 -27 -24h-51q-79 0 -107 41q-20 28 -30 113h-174l-33 -138q-5 -16 -23 -16h-53q-37 0 -64 15q-31 18 -31 51q0 61 97 318q90 237 129 307q11 19 39 19h95zM246 299h115l-42 264zM298 805q-12 19 -12 30 q0 15 67 71q69 58 93 58q19 0 59 -34q40 -35 40 -50q0 -22 -93 -62q-88 -38 -120 -38q-19 0 -34 25z"/>
<glyph glyph-name="Acircumflex" unicode="Â" d="M366 710q45 0 69 -34q17 -23 30 -77q134 -540 134 -575q0 -24 -27 -24h-51q-79 0 -107 41q-20 28 -30 113h-174l-33 -138q-5 -16 -23 -16h-53q-37 0 -64 15q-31 18 -31 51q0 61 97 318q90 237 129 307q11 19 39 19h95zM246 299h115l-42 264zM340 862q-111 -82 -145 -82 q-12 0 -32 19q-18 17 -18 24q0 6 132 126q17 15 76 15q44 0 53 -15q100 -119 100 -126q0 -6 -21 -24q-22 -19 -34 -19q-33 0 -111 82z"/>
<glyph glyph-name="Atilde" unicode="Ã" d="M366 710q45 0 69 -34q17 -23 30 -77q134 -540 134 -575q0 -24 -27 -24h-51q-79 0 -107 41q-20 28 -30 113h-174l-33 -138q-5 -16 -23 -16h-53q-37 0 -64 15q-31 18 -31 51q0 61 97 318q90 237 129 307q11 19 39 19h95zM246 299h115l-42 264zM481 925q33 30 41 30 q20 0 20 -39q0 -53 -34 -91q-40 -45 -109 -45q-51 0 -99 33q-47 32 -70 32q-31 0 -60 -32q-29 -33 -38 -33q-20 0 -20 40q0 52 30 89q37 46 105 46q49 0 96 -30q48 -30 72 -30q33 0 66 30z"/>
<glyph glyph-name="Adieresis" unicode="Ä" d="M366 710q45 0 69 -34q17 -23 30 -77q134 -540 134 -575q0 -24 -27 -24h-51q-79 0 -107 41q-20 28 -30 113h-174l-33 -138q-5 -16 -23 -16h-53q-37 0 -64 15q-31 18 -31 51q0 61 97 318q90 237 129 307q11 19 39 19h95zM246 299h115l-42 264zM158 895q24 21 65 21 q69 0 69 -58q0 -34 -23 -55q-25 -23 -67 -23q-68 0 -68 58q0 36 24 57zM386 895q24 21 65 21q69 0 69 -58q0 -34 -23 -55q-25 -23 -67 -23q-68 0 -68 58q0 36 24 57z"/>
<glyph glyph-name="Aring" unicode="Å" d="M366 710q45 0 69 -34q17 -23 30 -77q134 -540 134 -575q0 -24 -27 -24h-51q-79 0 -107 41q-20 28 -30 113h-174l-33 -138q-5 -16 -23 -16h-53q-37 0 -64 15q-31 18 -31 51q0 61 97 318q90 237 129 307q11 19 39 19h95zM246 299h115l-42 264zM426 866q0 -31 -19 -54 q-27 -32 -79 -32q-85 0 -85 68q0 34 23 57q27 26 74 26q86 0 86 -65zM310 853q0 -25 22 -25q26 0 26 31q0 23 -22 23q-26 0 -26 -29z"/>
<glyph d="M486 0q-77 0 -100 41q-15 27 -15 113h-174l-50 -138q-7 -16 -25 -16h-53q-86 0 -86 58q0 47 131 312q122 249 172 321q13 19 41 19h392q16 0 16 -14l-6 -59q-3 -34 -17 -48q-18 -19 -60 -19h-142l17 -141h196q16 0 16 -14l-5 -59q-7 -67 -78 -67h-111l17 -149h216 q16 0 16 -14l-6 -59q-3 -34 -17 -48q-18 -19 -60 -19h-225zM251 299h106v264z" glyph-name="AE" unicode="Æ" horiz-adv-x="819"/>
<glyph d="M470 185q55 39 67 39q20 0 20 -30q0 -27 -15 -89q-10 -39 -58 -71q-58 -39 -143 -43l-4 -31q96 0 96 -65q0 -42 -34 -68q-34 -27 -88 -27q-88 0 -88 49q0 14 6 27q6 15 13 15q2 0 20 -13q17 -14 38 -14q34 0 34 21q0 18 -37 31q-38 12 -38 14q0 22 14 64 q-233 31 -233 312q0 150 58 257q86 157 279 157q113 0 174 -53q56 -48 56 -127q0 -123 -144 -123q-33 0 -33 18q-2 80 -9 101q-12 31 -53 31q-82 0 -118 -97q-23 -63 -23 -154t31 -131q29 -39 94 -39q64 0 118 39z" glyph-name="Ccedilla" unicode="Ç" horiz-adv-x="618"/>
<glyph d="M155 0q-104 0 -104 85q0 42 21 310t21 300q0 15 16 15h352q16 0 16 -14l-4 -59q-5 -67 -76 -67h-138l-10 -141h142q16 0 16 -14l-4 -59q-5 -67 -76 -67h-87l-11 -149h220q16 0 16 -14l-4 -59q-5 -67 -76 -67h-230zM321 804q-13 -24 -28 -24q-43 0 -112 30q-69 29 -69 46 q0 24 31 64q32 40 49 40q14 0 79 -54q63 -53 63 -63q0 -18 -13 -39z" glyph-name="Egrave" unicode="È" horiz-adv-x="501"/>
<glyph d="M155 0q-104 0 -104 85q0 42 21 310t21 300q0 15 16 15h352q16 0 16 -14l-4 -59q-5 -67 -76 -67h-138l-10 -141h142q16 0 16 -14l-4 -59q-5 -67 -76 -67h-87l-11 -149h220q16 0 16 -14l-4 -59q-5 -67 -76 -67h-230zM264 805q-12 19 -12 30q0 15 67 71q69 58 93 58 q19 0 59 -34q40 -35 40 -50q0 -22 -93 -62q-88 -38 -120 -38q-19 0 -34 25z" glyph-name="Eacute" unicode="É" horiz-adv-x="501"/>
<glyph d="M155 0q-104 0 -104 85q0 42 21 310t21 300q0 15 16 15h352q16 0 16 -14l-4 -59q-5 -67 -76 -67h-138l-10 -141h142q16 0 16 -14l-4 -59q-5 -67 -76 -67h-87l-11 -149h220q16 0 16 -14l-4 -59q-5 -67 -76 -67h-230zM306 862q-111 -82 -145 -82q-12 0 -32 19q-18 17 -18 24 q0 6 132 126q17 15 76 15q44 0 53 -15q100 -119 100 -126q0 -6 -21 -24q-22 -19 -34 -19q-33 0 -111 82z" glyph-name="Ecircumflex" unicode="Ê" horiz-adv-x="501"/>
<glyph d="M155 0q-104 0 -104 85q0 42 21 310t21 300q0 15 16 15h352q16 0 16 -14l-4 -59q-5 -67 -76 -67h-138l-10 -141h142q16 0 16 -14l-4 -59q-5 -67 -76 -67h-87l-11 -149h220q16 0 16 -14l-4 -59q-5 -67 -76 -67h-230zM124 895q24 21 65 21q69 0 69 -58q0 -34 -23 -55 q-25 -23 -67 -23q-68 0 -68 58q0 36 24 57zM352 895q24 21 65 21q69 0 69 -58q0 -34 -23 -55q-25 -23 -67 -23q-68 0 -68 58q0 36 24 57z" glyph-name="Edieresis" unicode="Ë" horiz-adv-x="501"/>
<glyph d="M155 0q-104 0 -104 85q0 42 21 310t21 300q0 15 16 15h55q59 0 82 -26q21 -23 21 -77q0 -168 -41 -592q-1 -15 -16 -15h-55zM208 804q-13 -24 -28 -24q-43 0 -112 30q-69 29 -69 46q0 24 31 64q32 40 49 40q14 0 79 -54q63 -53 63 -63q0 -18 -13 -39z" glyph-name="Igrave" unicode="Ì" horiz-adv-x="314"/>
<glyph d="M155 0q-104 0 -104 85q0 42 21 310t21 300q0 15 16 15h55q59 0 82 -26q21 -23 21 -77q0 -168 -41 -592q-1 -15 -16 -15h-55zM151 805q-12 19 -12 30q0 15 67 71q69 58 93 58q19 0 59 -34q40 -35 40 -50q0 -22 -93 -62q-88 -38 -120 -38q-19 0 -34 25z" glyph-name="Iacute" unicode="Í" horiz-adv-x="314"/>
<glyph d="M155 0q-104 0 -104 85q0 42 21 310t21 300q0 15 16 15h55q59 0 82 -26q21 -23 21 -77q0 -168 -41 -592q-1 -15 -16 -15h-55zM193 862q-111 -82 -145 -82q-12 0 -32 19q-18 17 -18 24q0 6 132 126q17 15 76 15q44 0 53 -15q100 -119 100 -126q0 -6 -21 -24 q-22 -19 -34 -19q-33 0 -111 82z" glyph-name="Icircumflex" unicode="Î" horiz-adv-x="314"/>
<glyph d="M155 0q-104 0 -104 85q0 42 21 310t21 300q0 15 16 15h55q59 0 82 -26q21 -23 21 -77q0 -168 -41 -592q-1 -15 -16 -15h-55zM11 895q24 21 65 21q69 0 69 -58q0 -34 -23 -55q-25 -23 -67 -23q-68 0 -68 58q0 36 24 57zM239 895q24 21 65 21q69 0 69 -58q0 -34 -23 -55 q-25 -23 -67 -23q-68 0 -68 58q0 36 24 57z" glyph-name="Idieresis" unicode="Ï" horiz-adv-x="314"/>
<glyph d="M115 710h24q166 9 197 9q168 0 236 -70q65 -68 65 -230q0 -188 -74 -296q-91 -133 -286 -133q-117 0 -159 14q-61 21 -61 85q0 39 14 210h-50q-11 0 -11 11l3 54q4 68 68 70q15 190 17 261q0 15 17 15zM248 299q-4 -72 -11 -148q20 -3 47 -3q171 0 171 249q0 89 -25 126 q-27 42 -97 42l-69 -4l-7 -127h80q16 0 16 -14l-4 -54q-5 -67 -76 -67h-25z" glyph-name="Eth" unicode="Ð" horiz-adv-x="672"/>
<glyph d="M499 0q-69 0 -90 42l-190 403l7 -430q0 -15 -16 -15h-55q-104 0 -104 89q0 32 20 288q20 252 22 318q0 15 16 15h80q60 0 89 -28q17 -17 36 -64q80 -201 156 -374l-3 457q0 9 17 9h55q61 0 83 -26q18 -20 18 -71q0 -300 -41 -597q0 -16 -18 -16h-82zM540 925q33 30 41 30 q20 0 20 -39q0 -53 -34 -91q-40 -45 -109 -45q-51 0 -99 33q-47 32 -70 32q-31 0 -60 -32q-29 -33 -38 -33q-20 0 -20 40q0 52 30 89q37 46 105 46q49 0 96 -30q48 -30 72 -30q33 0 66 30z" glyph-name="Ntilde" unicode="Ñ" horiz-adv-x="688"/>
<glyph d="M678 416q0 -163 -65 -273q-90 -153 -289 -153q-284 0 -284 317q0 178 78 285q94 129 287 129q273 0 273 -305zM253 473q-27 -62 -27 -152q0 -175 117 -175q81 0 121 100q28 72 28 162q0 158 -108 158q-92 0 -131 -93zM439 804q-13 -24 -28 -24q-43 0 -112 30 q-69 29 -69 46q0 24 31 64q32 40 49 40q14 0 79 -54q63 -53 63 -63q0 -18 -13 -39z" glyph-name="Ograve" unicode="Ò" horiz-adv-x="711"/>
<glyph d="M678 416q0 -163 -65 -273q-90 -153 -289 -153q-284 0 -284 317q0 178 78 285q94 129 287 129q273 0 273 -305zM253 473q-27 -62 -27 -152q0 -175 117 -175q81 0 121 100q28 72 28 162q0 158 -108 158q-92 0 -131 -93zM382 805q-12 19 -12 30q0 15 67 71q69 58 93 58 q19 0 59 -34q40 -35 40 -50q0 -22 -93 -62q-88 -38 -120 -38q-19 0 -34 25z" glyph-name="Oacute" unicode="Ó" horiz-adv-x="711"/>
<glyph d="M678 416q0 -163 -65 -273q-90 -153 -289 -153q-284 0 -284 317q0 178 78 285q94 129 287 129q273 0 273 -305zM253 473q-27 -62 -27 -152q0 -175 117 -175q81 0 121 100q28 72 28 162q0 158 -108 158q-92 0 -131 -93zM424 862q-111 -82 -145 -82q-12 0 -32 19 q-18 17 -18 24q0 6 132 126q17 15 76 15q44 0 53 -15q100 -119 100 -126q0 -6 -21 -24q-22 -19 -34 -19q-33 0 -111 82z" glyph-name="Ocircumflex" unicode="Ô" horiz-adv-x="711"/>
<glyph d="M678 416q0 -163 -65 -273q-90 -153 -289 -153q-284 0 -284 317q0 178 78 285q94 129 287 129q273 0 273 -305zM253 473q-27 -62 -27 -152q0 -175 117 -175q81 0 121 100q28 72 28 162q0 158 -108 158q-92 0 -131 -93zM565 925q33 30 41 30q20 0 20 -39q0 -53 -34 -91 q-40 -45 -109 -45q-51 0 -99 33q-47 32 -70 32q-31 0 -60 -32q-29 -33 -38 -33q-20 0 -20 40q0 52 30 89q37 46 105 46q49 0 96 -30q48 -30 72 -30q33 0 66 30z" glyph-name="Otilde" unicode="Õ" horiz-adv-x="711"/>
<glyph d="M678 416q0 -163 -65 -273q-90 -153 -289 -153q-284 0 -284 317q0 178 78 285q94 129 287 129q273 0 273 -305zM253 473q-27 -62 -27 -152q0 -175 117 -175q81 0 121 100q28 72 28 162q0 158 -108 158q-92 0 -131 -93zM242 895q24 21 65 21q69 0 69 -58q0 -34 -23 -55 q-25 -23 -67 -23q-68 0 -68 58q0 36 24 57zM470 895q24 21 65 21q69 0 69 -58q0 -34 -23 -55q-25 -23 -67 -23q-68 0 -68 58q0 36 24 57z" glyph-name="Odieresis" unicode="Ö" horiz-adv-x="711"/>
<glyph d="M48 135q-20 30 -20 49q0 30 36 66q21 21 97 83l-88 137q-10 18 -10 23q0 9 27 32q30 25 56 25q34 0 51 -26l67 -104l134 115q18 15 22 15q14 0 36 -35q20 -33 20 -50q0 -28 -34 -62q-18 -18 -107 -92q90 -139 90 -149q0 -17 -32 -38q-31 -21 -51 -21q-35 0 -53 29l-58 91 l-133 -113q-8 -7 -14 -7q-16 0 -36 32z" glyph-name="multiply" unicode="×" horiz-adv-x="497"/>
<glyph d="M528 701l35 49q21 30 66 30q39 0 39 -32q0 -21 -54 -107q64 -77 64 -225q0 -163 -65 -273q-90 -153 -289 -153q-79 0 -137 25l-38 -55q-18 -27 -66 -27q-36 0 -36 31q0 29 54 117q-61 77 -61 226q0 178 78 285q94 129 287 129q71 0 123 -20zM287 159q23 -13 56 -13 q81 0 121 100q28 72 28 162q0 24 -3 45q-56 -83 -202 -294zM253 473q-27 -62 -27 -152q0 -26 3 -49q88 129 198 285q-18 9 -43 9q-92 0 -131 -93z" glyph-name="Oslash" unicode="Ø" horiz-adv-x="711"/>
<glyph d="M298 -10q-123 0 -186 69q-55 62 -55 168q0 53 15 233l18 220q1 30 17 30h55q59 0 82 -26q21 -23 21 -77l-10 -158q-11 -155 -11 -175q0 -128 72 -128q97 0 111 197q24 297 24 336q0 31 16 31h55q61 0 83 -22q15 -16 15 -50q0 -142 -17 -312q-34 -336 -305 -336zM394 804 q-13 -24 -28 -24q-43 0 -112 30q-69 29 -69 46q0 24 31 64q32 40 49 40q14 0 79 -54q63 -53 63 -63q0 -18 -13 -39z" glyph-name="Ugrave" unicode="Ù" horiz-adv-x="659"/>
<glyph d="M298 -10q-123 0 -186 69q-55 62 -55 168q0 53 15 233l18 220q1 30 17 30h55q59 0 82 -26q21 -23 21 -77l-10 -158q-11 -155 -11 -175q0 -128 72 -128q97 0 111 197q24 297 24 336q0 31 16 31h55q61 0 83 -22q15 -16 15 -50q0 -142 -17 -312q-34 -336 -305 -336zM337 805 q-12 19 -12 30q0 15 67 71q69 58 93 58q19 0 59 -34q40 -35 40 -50q0 -22 -93 -62q-88 -38 -120 -38q-19 0 -34 25z" glyph-name="Uacute" unicode="Ú" horiz-adv-x="659"/>
<glyph d="M298 -10q-123 0 -186 69q-55 62 -55 168q0 53 15 233l18 220q1 30 17 30h55q59 0 82 -26q21 -23 21 -77l-10 -158q-11 -155 -11 -175q0 -128 72 -128q97 0 111 197q24 297 24 336q0 31 16 31h55q61 0 83 -22q15 -16 15 -50q0 -142 -17 -312q-34 -336 -305 -336zM379 862 q-111 -82 -145 -82q-12 0 -32 19q-18 17 -18 24q0 6 132 126q17 15 76 15q44 0 53 -15q100 -119 100 -126q0 -6 -21 -24q-22 -19 -34 -19q-33 0 -111 82z" glyph-name="Ucircumflex" unicode="Û" horiz-adv-x="659"/>
<glyph d="M298 -10q-123 0 -186 69q-55 62 -55 168q0 53 15 233l18 220q1 30 17 30h55q59 0 82 -26q21 -23 21 -77l-10 -158q-11 -155 -11 -175q0 -128 72 -128q97 0 111 197q24 297 24 336q0 31 16 31h55q61 0 83 -22q15 -16 15 -50q0 -142 -17 -312q-34 -336 -305 -336zM197 895 q24 21 65 21q69 0 69 -58q0 -34 -23 -55q-25 -23 -67 -23q-68 0 -68 58q0 36 24 57zM425 895q24 21 65 21q69 0 69 -58q0 -34 -23 -55q-25 -23 -67 -23q-68 0 -68 58q0 36 24 57z" glyph-name="Udieresis" unicode="Ü" horiz-adv-x="659"/>
<glyph d="M296 0q-58 0 -82 24q-22 21 -22 72q0 42 11 173q-25 46 -57 117q-127 289 -127 305q0 21 67 21q75 0 109 -31q22 -21 39 -76q35 -118 77 -248q78 165 131 324q10 30 33 30q38 0 74 -9q65 -16 65 -54q0 -49 -85 -199q-84 -149 -148 -216q-4 -129 -14 -218q-1 -15 -16 -15 h-55zM296 805q-12 19 -12 30q0 15 67 71q69 58 93 58q19 0 59 -34q40 -35 40 -50q0 -22 -93 -62q-88 -38 -120 -38q-19 0 -34 25z" glyph-name="Yacute" unicode="Ý" horiz-adv-x="609"/>
<glyph d="M155 0q-104 0 -104 89q0 32 20 288q22 282 23 348q0 15 17 15h55q57 0 77 -24q15 -18 15 -62q0 -17 -1 -28q50 5 85 5q235 0 235 -229q0 -127 -64 -209q-73 -92 -209 -92q-45 0 -80 11q-5 -78 -8 -94q-4 -18 -17 -18h-44zM250 475l-15 -226q35 -8 62 -8q61 0 90 57 q20 40 20 95q0 88 -90 88q-29 0 -67 -6z" glyph-name="Thorn" unicode="Þ" horiz-adv-x="598"/>
<glyph d="M508 512q-52 -79 -52 -102q0 -22 24 -41q8 -7 24 -17q21 -13 28 -18q76 -53 76 -143q0 -86 -52 -142q-56 -59 -148 -59q-62 0 -111 25q-46 23 -46 45q0 90 31 90q10 0 42 -18q31 -19 59 -19q63 0 63 54q0 38 -72 94q-73 56 -73 120q0 58 51 123q50 65 50 82q0 34 -49 34 q-92 0 -121 -188q-14 -94 -35 -412q-1 -20 -22 -20h-41q-59 0 -75 17q-20 20 -20 98q0 191 40 375q30 138 90 197q68 68 203 68q187 0 187 -113q0 -52 -51 -130z" glyph-name="germandbls" unicode="ß" horiz-adv-x="634"/>
<glyph d="M93 264q82 51 238 55q2 28 2 37q0 70 -62 70q-38 0 -55 -22q-11 -15 -22 -59q-3 -14 -31 -14q-102 0 -102 77q0 66 57 108q62 44 172 44q211 0 211 -176q0 -15 -8 -99q-9 -84 -9 -99q0 -39 30 -50q29 -11 29 -16q0 -52 -25 -87q-32 -43 -95 -43q-88 0 -104 87 q-61 -87 -163 -87q-145 0 -145 133q0 90 82 141zM183 164q0 -41 46 -41q35 0 60 29q29 31 33 85q-139 0 -139 -73zM220 680q-55 65 -55 88q0 17 43 39q41 22 67 22q15 0 21 -15q60 -156 60 -151q0 -12 -22 -30t-35 -18q-23 0 -79 65z" glyph-name="agrave" unicode="à" horiz-adv-x="563"/>
<glyph d="M93 264q82 51 238 55q2 28 2 37q0 70 -62 70q-38 0 -55 -22q-11 -15 -22 -59q-3 -14 -31 -14q-102 0 -102 77q0 66 57 108q62 44 172 44q211 0 211 -176q0 -15 -8 -99q-9 -84 -9 -99q0 -39 30 -50q29 -11 29 -16q0 -52 -25 -87q-32 -43 -95 -43q-88 0 -104 87 q-61 -87 -163 -87q-145 0 -145 133q0 90 82 141zM183 164q0 -41 46 -41q35 0 60 29q29 31 33 85q-139 0 -139 -73zM267 633q-19 17 -19 30l102 151q10 15 23 15q25 0 68 -21q44 -23 44 -39q0 -20 -81 -87q-82 -67 -105 -67q-14 0 -32 18z" glyph-name="aacute" unicode="á" horiz-adv-x="563"/>
<glyph d="M93 264q82 51 238 55q2 28 2 37q0 70 -62 70q-38 0 -55 -22q-11 -15 -22 -59q-3 -14 -31 -14q-102 0 -102 77q0 66 57 108q62 44 172 44q211 0 211 -176q0 -15 -8 -99q-9 -84 -9 -99q0 -39 30 -50q29 -11 29 -16q0 -52 -25 -87q-32 -43 -95 -43q-88 0 -104 87 q-61 -87 -163 -87q-145 0 -145 133q0 90 82 141zM183 164q0 -41 46 -41q35 0 60 29q29 31 33 85q-139 0 -139 -73zM325 717q-104 -102 -135 -102q-12 0 -32 19q-18 17 -18 24q0 10 132 156q13 15 66 15q44 0 53 -15q90 -149 90 -156q0 -6 -21 -24q-22 -19 -34 -19 q-30 0 -101 102z" glyph-name="acircumflex" unicode="â" horiz-adv-x="563"/>
<glyph d="M93 264q82 51 238 55q2 28 2 37q0 70 -62 70q-38 0 -55 -22q-11 -15 -22 -59q-3 -14 -31 -14q-102 0 -102 77q0 66 57 108q62 44 172 44q211 0 211 -176q0 -15 -8 -99q-9 -84 -9 -99q0 -39 30 -50q29 -11 29 -16q0 -52 -25 -87q-32 -43 -95 -43q-88 0 -104 87 q-61 -87 -163 -87q-145 0 -145 133q0 90 82 141zM183 164q0 -41 46 -41q35 0 60 29q29 31 33 85q-139 0 -139 -73zM462 750q33 30 41 30q20 0 20 -39q0 -53 -34 -91q-40 -45 -109 -45q-51 0 -99 33q-47 32 -70 32q-31 0 -60 -32q-29 -33 -38 -33q-20 0 -20 40q0 52 30 89 q37 46 105 46q49 0 96 -30q48 -30 72 -30q33 0 66 30z" glyph-name="atilde" unicode="ã" horiz-adv-x="563"/>
<glyph d="M93 264q82 51 238 55q2 28 2 37q0 70 -62 70q-38 0 -55 -22q-11 -15 -22 -59q-3 -14 -31 -14q-102 0 -102 77q0 66 57 108q62 44 172 44q211 0 211 -176q0 -15 -8 -99q-9 -84 -9 -99q0 -39 30 -50q29 -11 29 -16q0 -52 -25 -87q-32 -43 -95 -43q-88 0 -104 87 q-61 -87 -163 -87q-145 0 -145 133q0 90 82 141zM183 164q0 -41 46 -41q35 0 60 29q29 31 33 85q-139 0 -139 -73zM144 734q24 21 65 21q69 0 69 -58q0 -34 -23 -55q-25 -23 -67 -23q-68 0 -68 58q0 36 24 57zM372 734q24 21 65 21q69 0 69 -58q0 -34 -23 -55 q-25 -23 -67 -23q-68 0 -68 58q0 36 24 57z" glyph-name="adieresis" unicode="ä" horiz-adv-x="563"/>
<glyph d="M93 264q82 51 238 55q2 28 2 37q0 70 -62 70q-38 0 -55 -22q-11 -15 -22 -59q-3 -14 -31 -14q-102 0 -102 77q0 66 57 108q62 44 172 44q211 0 211 -176q0 -15 -8 -99q-9 -84 -9 -99q0 -39 30 -50q29 -11 29 -16q0 -52 -25 -87q-32 -43 -95 -43q-88 0 -104 87 q-61 -87 -163 -87q-145 0 -145 133q0 90 82 141zM183 164q0 -41 46 -41q35 0 60 29q29 31 33 85q-139 0 -139 -73zM398 691q0 -31 -19 -54q-27 -32 -79 -32q-85 0 -85 68q0 34 23 57q27 26 74 26q86 0 86 -65zM282 678q0 -25 22 -25q26 0 26 31q0 23 -22 23q-26 0 -26 -29z " glyph-name="aring" unicode="å" horiz-adv-x="563"/>
<glyph d="M93 264q83 51 239 55l1 41q0 66 -59 66q-49 0 -68 -37q-20 -38 -44 -38q-101 0 -101 74q0 60 60 98q60 37 156 37q120 0 159 -72q76 72 191 72q92 0 139 -44q42 -40 42 -107q0 -119 -135 -166q-76 -26 -178 -26q10 -102 95 -102q40 0 64 28q24 27 33 27q21 0 43 -13 q33 -20 33 -58q0 -54 -65 -84q-54 -25 -131 -25q-134 0 -199 81q-74 -81 -206 -81q-151 0 -151 133q0 90 82 141zM498 297q63 1 100 21q39 21 39 57q0 52 -51 52q-72 0 -88 -130zM183 164q0 -41 50 -41q86 0 89 114q-139 0 -139 -73z" glyph-name="ae" unicode="æ" horiz-adv-x="827"/>
<glyph d="M382 149q42 26 47 26q23 0 23 -30q0 -52 -32 -89q-45 -53 -133 -64l-4 -32q96 0 96 -65q0 -42 -34 -68q-34 -27 -88 -27q-88 0 -88 49q0 14 6 27q6 15 13 15q2 0 20 -13q17 -14 38 -14q34 0 34 21q0 18 -37 31q-38 12 -38 14q0 20 13 63q-80 11 -128 64q-60 65 -60 183 q0 116 48 199q70 121 227 121q93 0 143 -42q46 -38 46 -102q0 -105 -130 -105q-26 0 -26 14q-1 58 -6 75q-9 27 -40 27q-92 0 -92 -177q0 -70 23 -99q21 -28 71 -28q46 0 88 26z" glyph-name="ccedilla" unicode="ç" horiz-adv-x="509"/>
<glyph d="M107 39q-79 60 -79 185q0 118 52 206q76 130 245 130q188 0 188 -150q0 -117 -132 -165q-77 -28 -181 -28q0 -43 22 -70q25 -32 73 -32q40 0 64 28q24 27 33 27q21 0 43 -13q33 -20 33 -58q0 -54 -65 -84q-54 -25 -131 -25q-102 0 -165 49zM203 297q63 1 100 21 q39 21 39 57q0 52 -51 52q-72 0 -88 -130zM246 680q-55 65 -55 88q0 17 43 39q41 22 67 22q15 0 21 -15q60 -156 60 -151q0 -12 -22 -30t-35 -18q-23 0 -79 65z" glyph-name="egrave" unicode="è" horiz-adv-x="532"/>
<glyph d="M107 39q-79 60 -79 185q0 118 52 206q76 130 245 130q188 0 188 -150q0 -117 -132 -165q-77 -28 -181 -28q0 -43 22 -70q25 -32 73 -32q40 0 64 28q24 27 33 27q21 0 43 -13q33 -20 33 -58q0 -54 -65 -84q-54 -25 -131 -25q-102 0 -165 49zM203 297q63 1 100 21 q39 21 39 57q0 52 -51 52q-72 0 -88 -130zM303 633q-19 17 -19 30l102 151q10 15 23 15q25 0 68 -21q44 -23 44 -39q0 -20 -81 -87q-82 -67 -105 -67q-14 0 -32 18z" glyph-name="eacute" unicode="é" horiz-adv-x="532"/>
<glyph d="M107 39q-79 60 -79 185q0 118 52 206q76 130 245 130q188 0 188 -150q0 -117 -132 -165q-77 -28 -181 -28q0 -43 22 -70q25 -32 73 -32q40 0 64 28q24 27 33 27q21 0 43 -13q33 -20 33 -58q0 -54 -65 -84q-54 -25 -131 -25q-102 0 -165 49zM203 297q63 1 100 21 q39 21 39 57q0 52 -51 52q-72 0 -88 -130zM347 717q-104 -102 -135 -102q-12 0 -32 19q-18 17 -18 24q0 10 132 156q13 15 66 15q44 0 53 -15q90 -149 90 -156q0 -6 -21 -24q-22 -19 -34 -19q-30 0 -101 102z" glyph-name="ecircumflex" unicode="ê" horiz-adv-x="532"/>
<glyph d="M107 39q-79 60 -79 185q0 118 52 206q76 130 245 130q188 0 188 -150q0 -117 -132 -165q-77 -28 -181 -28q0 -43 22 -70q25 -32 73 -32q40 0 64 28q24 27 33 27q21 0 43 -13q33 -20 33 -58q0 -54 -65 -84q-54 -25 -131 -25q-102 0 -165 49zM203 297q63 1 100 21 q39 21 39 57q0 52 -51 52q-72 0 -88 -130zM165 734q24 21 65 21q69 0 69 -58q0 -34 -23 -55q-25 -23 -67 -23q-68 0 -68 58q0 36 24 57zM393 734q24 21 65 21q69 0 69 -58q0 -34 -23 -55q-25 -23 -67 -23q-68 0 -68 58q0 36 24 57z" glyph-name="edieresis" unicode="ë" horiz-adv-x="532"/>
<glyph d="M144 0q-58 0 -82 25q-20 21 -20 70q0 6 30 426q1 21 5 25q2 4 16 4h39q58 0 82 -24q20 -21 20 -67q0 -40 -32 -439q-1 -20 -22 -20h-36zM68 680q-55 65 -55 88q0 17 43 39q41 22 67 22q15 0 21 -15q60 -156 60 -151q0 -12 -22 -30t-35 -18q-23 0 -79 65z" glyph-name="igrave" unicode="ì" horiz-adv-x="281"/>
<glyph d="M144 0q-58 0 -82 25q-20 21 -20 70q0 6 30 426q1 21 5 25q2 4 16 4h39q58 0 82 -24q20 -21 20 -67q0 -40 -32 -439q-1 -20 -22 -20h-36zM115 633q-19 17 -19 30l102 151q10 15 23 15q25 0 68 -21q44 -23 44 -39q0 -20 -81 -87q-82 -67 -105 -67q-14 0 -32 18z" glyph-name="iacute" unicode="í" horiz-adv-x="281"/>
<glyph d="M144 0q-58 0 -82 25q-20 21 -20 70q0 6 30 426q1 21 5 25q2 4 16 4h39q58 0 82 -24q20 -21 20 -67q0 -40 -32 -439q-1 -20 -22 -20h-36zM159 717q-104 -102 -135 -102q-12 0 -32 19q-18 17 -18 24q0 10 132 156q13 15 66 15q44 0 53 -15q90 -149 90 -156q0 -6 -21 -24 q-22 -19 -34 -19q-30 0 -101 102z" glyph-name="icircumflex" unicode="î" horiz-adv-x="281"/>
<glyph d="M144 0q-58 0 -82 25q-20 21 -20 70q0 6 30 426q1 21 5 25q2 4 16 4h39q58 0 82 -24q20 -21 20 -67q0 -40 -32 -439q-1 -20 -22 -20h-36zM5 734q24 21 65 21q69 0 69 -58q0 -34 -23 -55q-25 -23 -67 -23q-68 0 -68 58q0 36 24 57zM233 734q24 21 65 21q69 0 69 -58 q0 -34 -23 -55q-25 -23 -67 -23q-68 0 -68 58q0 36 24 57z" glyph-name="idieresis" unicode="ï" horiz-adv-x="281"/>
<glyph d="M569 379q0 -156 -60 -257q-78 -132 -244 -132q-119 0 -186 66q-63 64 -63 171q0 114 73 176q61 53 149 53q62 0 106 -33q25 -19 34 -37q10 14 10 51q0 43 -14 84l-114 -46q-8 0 -18 30q-9 29 -9 47q0 39 43 55q15 5 19 7q-42 20 -96 20q-9 20 -9 42q0 75 105 75 q96 0 169 -72q93 39 95 39q13 0 23 -31q9 -27 9 -45q0 -35 -61 -59q39 -88 39 -204zM205 246q0 -42 19 -69q21 -31 60 -31q76 0 76 96q0 94 -78 94q-77 0 -77 -90z" glyph-name="eth" unicode="ð" horiz-adv-x="603"/>
<glyph glyph-name="ntilde" unicode="ñ" d="M393 221q10 104 10 138q0 67 -61 67q-69 0 -96 -79q-28 -79 -45 -327q-1 -20 -22 -20h-36q-58 0 -82 25q-20 21 -20 70q0 6 30 426q1 22 5 26q3 3 16 3h39q98 0 104 -84q56 94 171 94q86 0 125 -39q40 -42 40 -142q0 -36 -13 -186q-14 -149 -14 -162q0 -21 -5 -26 q-4 -5 -22 -5h-32q-60 0 -83 23q-20 20 -20 65q0 28 11 133zM515 750q33 30 41 30q20 0 20 -39q0 -53 -34 -91q-40 -45 -109 -45q-51 0 -99 33q-47 32 -70 32q-31 0 -60 -32q-29 -33 -38 -33q-20 0 -20 40q0 52 30 89q37 46 105 46q49 0 96 -30q48 -30 72 -30q33 0 66 30z "/>
<glyph d="M29 240q0 138 64 220q77 100 236 100q235 0 235 -234q0 -128 -55 -215q-77 -121 -244 -121q-236 0 -236 250zM199 251q0 -128 81 -128q62 0 92 75q22 54 22 122q0 107 -82 107q-113 0 -113 -176zM260 680q-55 65 -55 88q0 17 43 39q41 22 67 22q15 0 21 -15 q60 -156 60 -151q0 -12 -22 -30t-35 -18q-23 0 -79 65z" glyph-name="ograve" unicode="ò" horiz-adv-x="598"/>
<glyph d="M29 240q0 138 64 220q77 100 236 100q235 0 235 -234q0 -128 -55 -215q-77 -121 -244 -121q-236 0 -236 250zM199 251q0 -128 81 -128q62 0 92 75q22 54 22 122q0 107 -82 107q-113 0 -113 -176zM307 633q-19 17 -19 30l102 151q10 15 23 15q25 0 68 -21q44 -23 44 -39 q0 -20 -81 -87q-82 -67 -105 -67q-14 0 -32 18z" glyph-name="oacute" unicode="ó" horiz-adv-x="598"/>
<glyph d="M29 240q0 138 64 220q77 100 236 100q235 0 235 -234q0 -128 -55 -215q-77 -121 -244 -121q-236 0 -236 250zM199 251q0 -128 81 -128q62 0 92 75q22 54 22 122q0 107 -82 107q-113 0 -113 -176zM357 717q-104 -102 -135 -102q-12 0 -32 19q-18 17 -18 24q0 10 132 156 q13 15 66 15q44 0 53 -15q90 -149 90 -156q0 -6 -21 -24q-22 -19 -34 -19q-30 0 -101 102z" glyph-name="ocircumflex" unicode="ô" horiz-adv-x="598"/>
<glyph d="M29 240q0 138 64 220q77 100 236 100q235 0 235 -234q0 -128 -55 -215q-77 -121 -244 -121q-236 0 -236 250zM199 251q0 -128 81 -128q62 0 92 75q22 54 22 122q0 107 -82 107q-113 0 -113 -176zM502 750q33 30 41 30q20 0 20 -39q0 -53 -34 -91q-40 -45 -109 -45 q-51 0 -99 33q-47 32 -70 32q-31 0 -60 -32q-29 -33 -38 -33q-20 0 -20 40q0 52 30 89q37 46 105 46q49 0 96 -30q48 -30 72 -30q33 0 66 30z" glyph-name="otilde" unicode="õ" horiz-adv-x="598"/>
<glyph d="M29 240q0 138 64 220q77 100 236 100q235 0 235 -234q0 -128 -55 -215q-77 -121 -244 -121q-236 0 -236 250zM199 251q0 -128 81 -128q62 0 92 75q22 54 22 122q0 107 -82 107q-113 0 -113 -176zM174 734q24 21 65 21q69 0 69 -58q0 -34 -23 -55q-25 -23 -67 -23 q-68 0 -68 58q0 36 24 57zM402 734q24 21 65 21q69 0 69 -58q0 -34 -23 -55q-25 -23 -67 -23q-68 0 -68 58q0 36 24 57z" glyph-name="odieresis" unicode="ö" horiz-adv-x="598"/>
<glyph d="M360 497q0 -97 -97 -97q-77 0 -77 72q0 93 97 93q77 0 77 -68zM34 228q-11 0 -11 11l2 41q4 70 72 70h342q16 0 16 -14l-3 -41q-5 -67 -76 -67h-342zM306 110q0 -97 -97 -97q-77 0 -77 72q0 93 97 93q77 0 77 -68z" glyph-name="divide" unicode="÷" horiz-adv-x="483"/>
<glyph d="M172 2l-30 -43q-19 -27 -66 -27q-36 0 -36 31q0 30 40 98q-51 60 -51 179q0 138 64 220q77 100 236 100q51 0 87 -10l39 54q21 30 66 30q39 0 39 -32q0 -23 -51 -104q55 -58 55 -172q0 -128 -55 -215q-77 -121 -244 -121q-54 0 -93 12zM254 121q12 -3 26 -3q70 0 104 77 q25 55 25 125q0 9 -2 23zM205 364q-21 -46 -21 -113q0 -20 1 -29q62 92 146 209q-6 1 -19 1q-75 0 -107 -68z" glyph-name="oslash" unicode="ø" horiz-adv-x="598"/>
<glyph d="M222 327q-11 -110 -11 -129q0 -74 66 -74q69 0 94 156q8 52 14 134l8 116q2 20 22 20h36q58 0 82 -25q20 -21 20 -70q0 -6 -30 -426q-2 -21 -4 -25q-3 -4 -17 -4h-39q-98 0 -104 82q-53 -92 -154 -92q-74 0 -119 46q-42 44 -42 112q0 141 25 371q3 31 28 31h32 q59 0 83 -23q20 -19 20 -62q0 -29 -10 -138zM237 680q-55 65 -55 88q0 17 43 39q41 22 67 22q15 0 21 -15q60 -156 60 -151q0 -12 -22 -30t-35 -18q-23 0 -79 65z" glyph-name="ugrave" unicode="ù" horiz-adv-x="600"/>
<glyph d="M222 327q-11 -110 -11 -129q0 -74 66 -74q69 0 94 156q8 52 14 134l8 116q2 20 22 20h36q58 0 82 -25q20 -21 20 -70q0 -6 -30 -426q-2 -21 -4 -25q-3 -4 -17 -4h-39q-98 0 -104 82q-53 -92 -154 -92q-74 0 -119 46q-42 44 -42 112q0 141 25 371q3 31 28 31h32 q59 0 83 -23q20 -19 20 -62q0 -29 -10 -138zM284 633q-19 17 -19 30l102 151q10 15 23 15q25 0 68 -21q44 -23 44 -39q0 -20 -81 -87q-82 -67 -105 -67q-14 0 -32 18z" glyph-name="uacute" unicode="ú" horiz-adv-x="600"/>
<glyph d="M222 327q-11 -110 -11 -129q0 -74 66 -74q69 0 94 156q8 52 14 134l8 116q2 20 22 20h36q58 0 82 -25q20 -21 20 -70q0 -6 -30 -426q-2 -21 -4 -25q-3 -4 -17 -4h-39q-98 0 -104 82q-53 -92 -154 -92q-74 0 -119 46q-42 44 -42 112q0 141 25 371q3 31 28 31h32 q59 0 83 -23q20 -19 20 -62q0 -29 -10 -138zM328 717q-104 -102 -135 -102q-12 0 -32 19q-18 17 -18 24q0 10 132 156q13 15 66 15q44 0 53 -15q90 -149 90 -156q0 -6 -21 -24q-22 -19 -34 -19q-30 0 -101 102z" glyph-name="ucircumflex" unicode="û" horiz-adv-x="600"/>
<glyph d="M222 327q-11 -110 -11 -129q0 -74 66 -74q69 0 94 156q8 52 14 134l8 116q2 20 22 20h36q58 0 82 -25q20 -21 20 -70q0 -6 -30 -426q-2 -21 -4 -25q-3 -4 -17 -4h-39q-98 0 -104 82q-53 -92 -154 -92q-74 0 -119 46q-42 44 -42 112q0 141 25 371q3 31 28 31h32 q59 0 83 -23q20 -19 20 -62q0 -29 -10 -138zM152 721q24 21 65 21q69 0 69 -58q0 -34 -23 -55q-25 -23 -67 -23q-68 0 -68 58q0 36 24 57zM380 721q24 21 65 21q69 0 69 -58q0 -34 -23 -55q-25 -23 -67 -23q-68 0 -68 58q0 36 24 57z" glyph-name="udieresis" unicode="ü" horiz-adv-x="600"/>
<glyph d="M223 341q-10 -84 -10 -102q0 -75 64 -75q95 0 110 179l16 187q1 20 22 20h36q102 0 102 -83q0 -28 -30 -438q-16 -224 -268 -224q-100 0 -167 34q-66 33 -66 82q0 36 31 56q28 18 71 18q3 0 29 -32q26 -33 93 -33q116 0 116 188q-49 -88 -158 -88q-166 0 -166 188 q0 30 21 301q2 31 28 31h32q60 0 83 -23q20 -21 20 -69q0 -33 -9 -117zM288 633q-19 17 -19 30l102 151q10 15 23 15q25 0 68 -21q44 -23 44 -39q0 -20 -81 -87q-82 -67 -105 -67q-14 0 -32 18z" glyph-name="yacute" unicode="ý" horiz-adv-x="610"/>
<glyph d="M58 309q27 335 27 402q0 21 3 25t18 4h39q104 0 104 -87q0 -30 -12 -181q50 88 146 88q192 0 192 -245q0 -147 -68 -237q-66 -88 -169 -88q-92 0 -129 88q-14 -146 -21 -243q-1 -20 -22 -20h-36q-102 0 -102 86q0 46 30 408zM315 427q-101 0 -101 -168q0 -136 80 -136 q45 0 72 42q29 46 29 132q0 130 -80 130z" glyph-name="thorn" unicode="þ" horiz-adv-x="611"/>
<glyph d="M155 0q-104 0 -104 85q0 42 21 310t21 300q0 15 16 15h352q16 0 16 -14l-4 -59q-5 -67 -76 -67h-138l-10 -141h142q16 0 16 -14l-4 -59q-5 -67 -76 -67h-87l-11 -149h220q16 0 16 -14l-4 -59q-5 -67 -76 -67h-230zM124 895q24 21 65 21q69 0 69 -58q0 -34 -23 -55 q-25 -23 -67 -23q-68 0 -68 58q0 36 24 57zM352 895q24 21 65 21q69 0 69 -58q0 -34 -23 -55q-25 -23 -67 -23q-68 0 -68 58q0 36 24 57z" glyph-name="uni0401" unicode="Ё" horiz-adv-x="501"/>
<glyph glyph-name="uni0410" unicode="А" d="M366 710q45 0 69 -34q17 -23 30 -77q134 -540 134 -575q0 -24 -27 -24h-51q-79 0 -107 41q-20 28 -30 113h-174l-33 -138q-5 -16 -23 -16h-53q-37 0 -64 15q-31 18 -31 51q0 61 97 318q90 237 129 307q11 19 39 19h95zM246 299h115l-42 264z"/>
<glyph d="M245 304l-11 -173q36 -11 65 -11q97 0 97 92q16 109 -91 98q-25 0 -60 -6zM263 570q-7 -112 -8 -122q163 15 234 -42.5t53 -198.5q-11 -220 -294 -217q-113 0 -157 29q-40 27 -40 89q0 26 19 259q20 273 20 291q0 34 2 42q3 9 16 10t25 0h381q16 0 16 -14l-4 -59 q-5 -67 -76 -67h-187z" glyph-name="uni0411" unicode="Б" horiz-adv-x="579"/>
<glyph d="M91 19q-40 27 -40 89q0 26 19 269q20 263 20 281q0 34 2 42q3 9 16 10q125 8 173 8q285 0 285 -182q0 -137 -106 -164q106 -33 106 -158q0 -224 -318 -224q-113 0 -157 29zM245 294l-11 -163q36 -11 65 -11q97 0 97 92q0 88 -91 88q-25 0 -60 -6zM255 438q32 -8 57 -8 q94 0 94 74q0 76 -91 76q-20 0 -52 -5q-7 -127 -8 -137z" glyph-name="uni0412" unicode="В" horiz-adv-x="605"/>
<glyph d="M240 289l-19 -274q-1 -15 -11 -15h-55q-104 0 -104 85q0 42 21 310t21 300q0 15 16 15h352q16 0 16 -14l-4 -59q-5 -67 -76 -67h-138l-10 -141z" glyph-name="uni0413" unicode="Г" horiz-adv-x="464"/>
<glyph d="M389 154l41 416h-90q-7 -133 -23 -254q-13 -96 -37 -162h109zM508 710q104 0 102 -85q-2 -42 -31 -320q-9 -89 -15 -150l21 -2q15 1 29 -12t17 -45q9 -47 -5 -80q-1 -4 -4.5 -13.5t-13.5 -22.5q-42 -53 -152 -49q-12 -1 -4 15q21 52 -4 52q-13 5 -262 -1q-41 -3 -52 -34 l-11 -30q-121 -9 -126 107q-2 52 30 81q26 23 77 31q29 112 39 181q4 28 34 353q1 24 16 24h55h260z" glyph-name="uni0414" unicode="Д" horiz-adv-x="656"/>
<glyph d="M155 0q-104 0 -104 85q0 42 21 310t21 300q0 15 16 15h352q16 0 16 -14l-4 -59q-5 -67 -76 -67h-138l-10 -141h142q16 0 16 -14l-4 -59q-5 -67 -76 -67h-87l-11 -149h220q16 0 16 -14l-4 -59q-5 -67 -76 -67h-230z" glyph-name="uni0415" unicode="Е" horiz-adv-x="501"/>
<glyph d="M373 435q15 210 17 260q0 15 16 15h43q59 0 80 -25q18 -20 18 -70q0 -48 -9 -190q62 79 191 257q28 38 47 38q26 0 61 -47q34 -45 34 -74q0 -65 -195 -219q194 -326 194 -315q0 -19 -34 -45q-39 -30 -81 -30q-65 0 -112 88q-32 59 -78 220l-37 -25l-19 -258 q0 -15 -15 -15h-53q-91 0 -91 89q0 25 11 182l-34 17q-70 -151 -109 -210q-60 -88 -125 -88q-41 0 -76 30q-31 26 -28 45q-2 -11 238 305q-171 164 -161 229q4 29 46 74q42 47 67 47q19 0 42 -38q92 -159 152 -247z" glyph-name="uni0416" unicode="Ж" horiz-adv-x="905"/>
<glyph d="M206 527q-4 -12 -18 -12q-110 0 -110 77q0 58 65 94q64 35 163 35q216 0 216 -177q0 -101 -92 -159q90 -43 90 -134q0 -98 -72 -171q-88 -90 -250 -90q-188 0 -188 120q0 94 121 94q17 0 19 -12q12 -46 79 -46q56 0 84 37q21 27 21 61q0 29 -21 47q-18 16 -43 17l-143 6 q-16 0 -16 14l3 28q3 33 18 48q17 17 59 19l90 4q72 3 72 81q0 65 -65 65q-63 0 -82 -46z" glyph-name="uni0417" unicode="З" horiz-adv-x="565"/>
<glyph d="M155 0q-104 0 -104 85q0 42 21 310t21 300q0 15 16 15h55q59 0 82 -26q21 -23 21 -77q0 -6 -20 -294l149 305q16 47 33 64q26 26 79 28h16q59 0 82 -26q21 -23 21 -77q0 -168 -41 -592q-1 -15 -16 -15h-55q-104 0 -104 85q0 30 20 292l-177 -335q-17 -41 -82 -42h-17z " glyph-name="uni0418" unicode="И" horiz-adv-x="688"/>
<glyph d="M365 879q38 -11 136 68q12 0 32 -19q18 -19 18 -25q-5 -65 -68 -114.5t-140 -41.5q-79 9 -123 70.5t-30 85.5q0 5 21 24q22 20 34 20q80 -65 120 -68zM155 0q-104 0 -104 85q0 42 21 310t21 300q0 15 16 15h55q59 0 82 -26q21 -23 21 -77q0 -6 -20 -294l149 305 q16 47 33 64q26 26 79 28h16q59 0 82 -26q21 -23 21 -77q0 -168 -41 -592q-1 -15 -16 -15h-55q-104 0 -104 85q0 30 20 292l-177 -335q-17 -41 -82 -42h-17z" glyph-name="uni0419" unicode="Й" horiz-adv-x="688"/>
<glyph d="M562 20q-40 -30 -83 -30q-67 0 -115 88q-33 59 -81 220l-38 -25l-19 -258q-1 -15 -16 -15h-55q-104 0 -104 89q0 32 20 288q20 261 22 318q0 15 16 15h55q60 0 82 -25q19 -20 19 -70q0 -48 -10 -190q64 79 197 257q29 38 49 38q26 0 62 -47q36 -45 36 -74 q0 -65 -201 -219q200 -326 200 -315q0 -19 -36 -45z" glyph-name="uni041A" unicode="К" horiz-adv-x="623"/>
<glyph d="M320 710h210q104 0 101 -85q-1 -42 -30 -310t-30 -300q-1 -15 -17 -15h-55q-99 0 -96 85l48 485h-110q-7 -123 -23 -244q-20 -148 -66 -225q-32 -55 -70.5 -80t-77.5 -27q-4 0 -13 0.5t-22 4.5q-44 13 -61 55q-16 39 -2 83q1 4 40 5q16 0 34.5 8.5t34.5 54.5 q14 37 30 138q3 28 33 343q2 24 17 24h125z" glyph-name="uni041B" unicode="Л" horiz-adv-x="670"/>
<glyph d="M606 289q-62 -193 -94 -272q-8 -17 -56 -17q-94 0 -113 51q-22 74 -55 241q-36 184 -51 241q0 -21 -5 -224q-6 -203 -6 -263q0 -46 -16 -46h-55q-104 0 -104 89q0 32 20 288q20 262 21 318q0 15 17 15h140q57 0 87 -28q28 -27 44 -90q11 -43 27 -160q21 -148 38 -238 q122 459 132 499q6 17 25 17h156q60 0 82 -25q19 -20 19 -70q0 -236 -39 -600q-1 -15 -16 -15h-55q-104 0 -104 81q0 19 18 193q19 186 22 259z" glyph-name="uni041C" unicode="М" horiz-adv-x="908"/>
<glyph d="M515 0q-104 0 -104 85q0 31 13 204h-178l-20 -274q-1 -15 -16 -15h-55q-104 0 -104 85q0 42 21 310t21 300q0 15 16 15h55q59 0 82 -26q21 -23 21 -77q0 -8 -11 -173h179q18 236 18 261q0 15 16 15h55q59 0 82 -26q21 -23 21 -77q0 -168 -41 -592q-1 -15 -16 -15h-55z " glyph-name="uni041D" unicode="Н" horiz-adv-x="674"/>
<glyph d="M678 416q0 -163 -65 -273q-90 -153 -289 -153q-284 0 -284 317q0 178 78 285q94 129 287 129q273 0 273 -305zM253 473q-27 -62 -27 -152q0 -175 117 -175q81 0 121 100q28 72 28 162q0 158 -108 158q-92 0 -131 -93z" glyph-name="uni041E" unicode="О" horiz-adv-x="711"/>
<glyph d="M515 0q-104 0 -104 85q0 31 32 480h-178l-39 -550q-1 -15 -16 -15h-55q-104 0 -104 85q0 42 21 310t21 300q0 15 16 15h55h360q59 0 82 -26q21 -23 21 -77q0 -168 -41 -592q-1 -15 -16 -15h-55z" glyph-name="uni041F" unicode="П" horiz-adv-x="674"/>
<glyph d="M155 0q-104 0 -104 89q0 55 20 288q20 232 21 318q0 15 15 15q36 0 119 5t111 5q240 0 240 -228q0 -128 -64 -209q-73 -93 -209 -93q-43 0 -73 9l-14 -184q-1 -15 -16 -15h-46zM254 565q-3 -82 -13 -228q28 -7 56 -7q61 0 90 57q20 40 20 95q0 88 -90 88q-23 0 -63 -5z " glyph-name="uni0420" unicode="Р" horiz-adv-x="588"/>
<glyph d="M469 185q55 39 67 39q20 0 20 -30q0 -27 -15 -89q-10 -41 -62 -74q-64 -41 -157 -41q-120 0 -193 66q-90 81 -90 250q0 150 58 257q86 157 279 157q113 0 174 -53q56 -48 56 -127q0 -123 -144 -123q-33 0 -33 18q-2 80 -9 101q-12 31 -53 31q-82 0 -118 -97 q-23 -63 -23 -154t31 -131q29 -39 94 -39q64 0 118 39z" glyph-name="uni0421" unicode="С" horiz-adv-x="617"/>
<glyph d="M375 570l-38 -555q-1 -15 -11 -15h-55q-104 0 -104 85q0 20 34 485h-160q-11 0 -11 14l3 56q4 70 67 70h447q16 0 16 -14l-4 -59q-5 -67 -76 -67h-108z" glyph-name="uni0422" unicode="Т" horiz-adv-x="544"/>
<glyph d="M379 431q6 87 17 255q1 24 16 24h55q97 0 97 -61q0 -163 -17 -323q-16 -148 -59 -225q-63 -111 -265 -111q-80 0 -129 38q-46 36 -46 90q0 47 35 76q33 27 79 27q4 0 16 -37q22 -40 62 -40q86 -1 108 61q10 29 20 99q-62 -50 -145 -50q-177 0 -177 188q0 30 22 241 q3 31 30 31h34q64 0 89 -23q21 -21 21 -69q-20 -141 -20 -159q0 -75 68 -75q57 6 89 43z" glyph-name="uni0423" unicode="У" horiz-adv-x="604"/>
<glyph d="M284 522q-90 0 -104 -105q-17 -142 83 -142q27 0 63 10q10 145 17 231q-36 6 -59 6zM522 515l-15 -226q34 -8 60 -8q58 0 86 57q19 40 19 95q0 88 -86 88q-28 0 -64 -6zM322 151l-5 -1l-57 -8q-253 -9 -213 283q33 245 243 245q17 0 67 -3q5 69 5 98q0 15 16 15h63 q55 0 74 -24q14 -18 14 -62q0 -17 -1 -28q48 5 82 5q205 0 205 -229q0 -127 -61 -209q-60 -92 -181 -92q-43 0 -76 11q-5 -118 -8 -134q-4 -18 -16 -18h-52q-100 0 -100 89q0 46 1 62z" glyph-name="uni0424" unicode="Ф" horiz-adv-x="826"/>
<glyph d="M541 -1q-130 0 -160 63l-84 175l-69 -108q-48 -77 -74 -116q-17 -23 -41 -23q-28 0 -64 53q-35 51 -35 88q0 76 221 226q-195 330 -195 338q0 15 66 15q79 0 120 -22q41 -23 66 -81l55 -125q30 39 70 101q53 81 84 125q9 12 25 12q33 0 70 -55q34 -51 34 -84 q0 -70 -220 -217q16 -31 115 -190q79 -127 79 -153q0 -22 -63 -22z" glyph-name="uni0425" unicode="Х" horiz-adv-x="640"/>
<glyph d="M432 0h-278q-59 0 -82 26q-21 23 -21 77q0 168 41 592q1 15 16 15h55q104 0 104 -85q0 -31 -32 -480h178l39 550q1 15 16 15h55q104 0 104 -85q0 -42 -21 -310q-7 -89 -12 -152h28q15 1 29.5 -12t18.5 -45q10 -47 -2 -90q-1 -4 -4.5 -13.5t-12.5 -22.5q-41 -53 -151 -49 q-12 -1 -4 15q19 52 -6 52q-6 2 -58 2z" glyph-name="uni0426" unicode="Ц" horiz-adv-x="697"/>
<glyph d="M458 466q16 206 16 229q0 15 16 15h55q59 0 82 -26q21 -23 21 -77q0 -168 -41 -592q-1 -15 -16 -15h-55q-104 0 -104 85q0 31 13 204l3 36q-71 -71 -171 -71q-181 0 -181 188q0 30 23 241q2 31 30 31h35q65 0 90 -23q22 -21 22 -69q-21 -141 -21 -159q0 -75 70 -75 q81 8 113 78z" glyph-name="uni0427" unicode="Ч" horiz-adv-x="674"/>
<glyph d="M325 145q4 175 40 550q1 15 16 15h55q104 0 104 -85q0 -31 -32 -480h88l39 550q1 15 16 15h55q104 0 104 -85q0 -42 -21 -310t-21 -300q0 -15 -16 -15h-598q-59 0 -82 26q-21 23 -21 77q0 168 41 592q1 15 16 15h55q104 0 104 -85q0 -31 -32 -480h90z" glyph-name="uni0428" unicode="Ш" horiz-adv-x="857"/>
<glyph d="M777 163h28q15 1 29.5 -12t18.5 -45q10 -47 -2 -90q-1 -4 -4.5 -13.5t-12.5 -22.5q-41 -53 -151 -49q-12 -1 -4 15q19 52 -6 52q-6 2 -58 2h-461q-59 0 -82 26q-21 23 -21 77q0 168 41 592q1 15 16 15h55q104 0 104 -85q0 -31 -32 -480h90q4 175 40 550q1 15 16 15h55 q104 0 104 -85q0 -31 -32 -480h88l39 550q1 15 16 15h55q104 0 104 -85q0 -42 -21 -310q-7 -89 -12 -152z" glyph-name="uni0429" unicode="Щ" horiz-adv-x="882"/>
<glyph d="M310 314l-11 -183q36 -11 65 -11q83 0 97 92q19 108 -91 108q-25 0 -60 -6zM231 710q59 0 82 -26q19 -19 19 -73q0 -69 -8 -153q141 2 212 -45q84 -52 75 -199q-25 -225 -298 -224q-113 0 -157 29q-40 27 -40 89q0 26 19 269q8 106 13 172h-134q-13 0 -13 15l2 54 q5 92 82 92h88q14 1 26 0h32z" glyph-name="uni042A" unicode="Ъ" horiz-adv-x="644"/>
<glyph d="M245 314l-11 -183q36 -11 65 -11q83 0 97 92q19 108 -91 108q-25 0 -60 -6zM259 458q141 2 212 -45q84 -52 75 -199q-25 -225 -298 -224q-113 0 -157 29q-40 27 -40 89q0 26 19 269q20 263 20 281q0 34 2 42q3 9 16 10t25 0h33q59 0 82 -26q19 -19 19 -73q0 -69 -8 -153z M691 0q-104 0 -104 85q0 42 21 310t21 300q0 15 16 15h55q59 0 82 -26q21 -23 21 -77q0 -168 -41 -592q-1 -15 -16 -15h-55z" glyph-name="uni042B" unicode="Ы" horiz-adv-x="853"/>
<glyph d="M245 314l-11 -183q36 -11 65 -11q83 0 97 92q19 108 -91 108q-25 0 -60 -6zM259 458q141 2 212 -45q84 -52 75 -199q-25 -225 -298 -224q-113 0 -157 29q-40 27 -40 89q0 26 19 269q20 263 20 281q0 34 2 42q3 9 16 10t25 0h33q59 0 82 -26q19 -19 19 -73q0 -69 -8 -153z " glyph-name="uni042C" unicode="Ь" horiz-adv-x="579"/>
<glyph d="M394 435q-1 10 -7 35q-23 97 -110 97q-103 22 -175 -79q-78 25 -51.5 124t196.5 116q259 -1 317 -165q45 -107 21 -257q-27 -169 -137 -250q-88 -66 -216 -66q-99 0 -160 41q-51 33 -55 74q-6 62 -2 89q5 30 26 30q14 0 66 -39t119 -39q69 0 107 39q34 35 50 108h-253 q-11 0 -11 11l2 41q4 90 72 90h201z" glyph-name="uni042D" unicode="Э" horiz-adv-x="617"/>
<glyph d="M498 473q-22 -62 -22 -152q0 -175 87 -175q65 0 97 100q22 71 22 162q0 158 -78 158q-74 0 -106 -93zM301 434q17 92 61 158q87 129 263 129q243 0 243 -305q0 -164 -59 -273q-82 -153 -265 -153q-247 0 -254 299h-68l-20 -274q-1 -15 -16 -15h-55q-104 0 -104 85 q0 42 21 310t21 300q0 15 16 15h55q59 0 82 -26q21 -23 21 -77q0 -8 -11 -173h69z" glyph-name="uni042E" unicode="Ю" horiz-adv-x="905"/>
<glyph d="M345 570q-90 0 -103 -85q-17 -115 82 -115q26 0 62 8q10 117 17 187q-36 5 -58 5zM534 15q-1 -15 -16 -15h-46q-104 0 -104 89q0 15 1 41l-3 -1q4 52 10 118q-24 -5 -60 -7q-98 -250 -193 -250q-52 0 -88 31q-30 25 -27 44q2 12 59 80l102 120q-121 61 -95 232 q34 223 274 223q23 0 103 -5q79 -5 125 -5q10 0 11 -12t-2 -58l-23 -263z" glyph-name="uni042F" unicode="Я" horiz-adv-x="617"/>
<glyph d="M93 264q82 51 238 55q2 28 2 37q0 70 -62 70q-38 0 -55 -22q-11 -15 -22 -59q-3 -14 -31 -14q-102 0 -102 77q0 66 57 108q62 44 172 44q211 0 211 -176q0 -15 -8 -99q-9 -84 -9 -99q0 -39 30 -50q29 -11 29 -16q0 -52 -25 -87q-32 -43 -95 -43q-88 0 -104 87 q-61 -87 -163 -87q-145 0 -145 133q0 90 82 141zM183 164q0 -41 46 -41q35 0 60 29q29 31 33 85q-139 0 -139 -73z" glyph-name="uni0430" unicode="а" horiz-adv-x="563"/>
<glyph d="M255 373q-22 -35 -22 -164q0 -78 67 -78q57 0 88 49q24 37 24 166q0 70 -76 70q-52 0 -81 -43zM397 730v1q62 -5 73 26q5 11 20 5q115 -42 82 -130q-19 -51 -75 -63q-38 -8 -104 4v1q-14 2 -32 2q-67 0 -98.5 -38t-29.5 -69q0 -14 4 -19q39 44 42 46q49 40 117 40 q77 0 125 -42q57 -50 57 -149q0 -199 -76 -274q-81 -81 -222 -81q-136 0 -192 88q-45 71 -45 211q0 191 72 312q85 130 257 130q13 0 25 -1z" glyph-name="uni0431" unicode="б" horiz-adv-x="616"/>
<glyph d="M251 382q-23 -34 -23 -174q0 -77 68 -77q57 0 89 48q24 37 24 177q0 70 -76 70q-54 0 -82 -44zM233 461q38 43 41 45q49 40 117 40q77 0 125 -42q57 -50 57 -149q0 -209 -76 -284q-81 -81 -222 -81q-136 0 -192 88q-72 115 -34 404q61 257 203.5 292t205.5 -41 q39 -72 -10.5 -128.5t-104 -46t-47.5 53.5q67 10 57 46q-53 15 -98 -70q-24 -46 -24.5 -79t2.5 -48z" glyph-name="uni0432" unicode="в" horiz-adv-x="616"/>
<glyph d="M234 560q94 0 150 -41q66 -49 51 -144q-16 -107 -133 -156l-80 -31q-36 -18 -40 -42q-5 -33 59 -33q51 0 89 19q39 18 49 18q26 0 39 -29q11 -24 7 -47q-6 -42 -88 -66q-63 -18 -136 -18q-99 0 -146 46q-45 44 -34 118q15 102 142 152q96 37 87 33q40 19 44 46 q7 47 -55 47q-55 0 -68 -67q-2 -14 -26 -14q-107 0 -94 90q8 54 54 85q48 34 129 34z" glyph-name="uni0433" unicode="г" horiz-adv-x="470"/>
<glyph d="M217 30q-184 0 -184 226q0 120 47 200q61 104 190 104q103 0 128 -82q-3 6 4 62q1 10 13 10h46q53 0 75 -21q24 -24 24 -82q0 -258 -44 -464q-38 -178 -270 -178q-99 0 -158 37q-53 33 -53 79q0 35 29 56q25 18 58 18q16 0 43 -32q27 -33 84 -33q119 0 119 188 q-49 -88 -151 -88zM389 316q0 111 -74 111q-63 0 -90 -67q-16 -42 -16 -98q0 -99 75 -99q105 0 105 153z" glyph-name="uni0434" unicode="д" horiz-adv-x="607"/>
<glyph d="M107 39q-79 60 -79 185q0 118 52 206q76 130 245 130q188 0 188 -150q0 -117 -132 -165q-77 -28 -181 -28q0 -43 22 -70q25 -32 73 -32q40 0 64 28q24 27 33 27q21 0 43 -13q33 -20 33 -58q0 -54 -65 -84q-54 -25 -131 -25q-102 0 -165 49zM203 297q63 1 100 21 q39 21 39 57q0 52 -51 52q-72 0 -88 -130z" glyph-name="uni0435" unicode="е" horiz-adv-x="532"/>
<glyph d="M292 405q5 68 9 128q1 22 5 26q3 3 16 3h39q104 0 104 -87q0 -20 -7 -76l160 146q15 14 28 14q20 0 48 -46q27 -45 27 -70q0 -53 -187 -133q209 -231 209 -229q0 -20 -21 -51q-28 -40 -67 -40q-87 0 -212 233l-16 -203q-1 -20 -22 -20h-36q-59 0 -82 25q-20 22 -20 73 q0 11 9 109q-119 -206 -200 -206q-39 0 -60 40q-17 31 -14 51q0 -3 186 220q-153 98 -145 151q4 25 27 49q28 35 48 35q13 0 26 -14z" glyph-name="uni0436" unicode="ж" horiz-adv-x="777"/>
<glyph d="M397 292q29 36 39 83q20 95 -43 144q-53 41 -147 41q-81 0 -131 -34q-48 -31 -59 -85q-19 -90 88 -90q24 0 27 14q17 67 72 67q62 0 52 -47q-4 -23 -36 -46q-26 -19 -76.5 -26.5t-49.5 -80.5l54 -3q120 -7 98 -83q-2 -33 -66 -33q-51 0 -86 19q-34 18 -44 18 q-26 0 -46 -29q-15 -24 -16 -47q-3 -42 74 -66q59 -18 132 -18q98 0 156 46q54 44 58 118q5 78 -62 125q6 7 12 13z" glyph-name="uni0437" unicode="з" horiz-adv-x="470"/>
<glyph d="M222 327q-11 -110 -11 -129q0 -74 66 -74q69 0 94 156q8 52 14 134l8 116q2 20 22 20h36q58 0 82 -25q20 -21 20 -70q0 -6 -30 -426q-2 -21 -4 -25q-3 -4 -17 -4h-39q-98 0 -104 82q-53 -92 -154 -92q-74 0 -119 46q-42 44 -42 112q0 141 25 371q3 31 28 31h32 q59 0 83 -23q20 -19 20 -62q0 -29 -10 -138z" glyph-name="uni0438" unicode="и" horiz-adv-x="600"/>
<glyph d="M222 327q-11 -110 -11 -129q0 -74 66 -74q69 0 94 156q8 52 14 134l8 116q2 20 22 20h36q58 0 82 -25q20 -21 20 -70q0 -6 -30 -426q-2 -21 -4 -25q-3 -4 -17 -4h-39q-98 0 -104 82q-53 -92 -154 -92q-74 0 -119 46q-42 44 -42 112q0 141 25 371q3 31 28 31h32 q59 0 83 -23q20 -19 20 -62q0 -29 -10 -138zM307 689q38 -11 136 68q12 0 32 -19q18 -19 18 -25q-5 -65 -68 -114.5t-140 -41.5q-79 9 -123 70.5t-30 85.5q0 5 21 24q22 20 34 20q80 -65 120 -68z" glyph-name="uni0439" unicode="й" horiz-adv-x="600"/>
<glyph d="M495 30q-28 -40 -67 -40q-87 0 -212 233l-16 -203q-1 -20 -22 -20h-36q-59 0 -82 25q-20 22 -20 73q0 12 10 125q15 176 24 310q1 22 5 26q3 3 16 3h39q104 0 104 -87q0 -20 -7 -76l160 146q15 14 28 14q20 0 48 -46q27 -45 27 -70q0 -53 -187 -133q209 -231 209 -229 q0 -20 -21 -51z" glyph-name="uni043A" unicode="к" horiz-adv-x="539"/>
<glyph d="M294 425q-6 -64 -21 -202q-22 -206 -166 -223q-16 -2 -30 -2q-60 0 -77 39q-16 38 21 74q24 22 58 38l14 -9q5 10 8 25q6 28 18 150l9 112q-3 129 113 129q257 17 269 -31q29 -26 27 -109q0 -11 -30 -396q-1 -22 -5 -26q-3 -3 -16 -3h-39q-104 0 -104 86q0 40 11 148.5 t11 146.5q0 41 -30 53h-41z" glyph-name="uni043B" unicode="л" horiz-adv-x="560"/>
<glyph d="M634 550q58 0 82 -24q20 -21 20 -67q0 -40 -32 -439q-1 -20 -22 -20h-36q-58 0 -82 25q-20 21 -20 70q0 4 14 201l-3 -12v10l-80 -265q-6 -24 -68 -26.5t-94 8.5q-44 16 -53 62q-5 19 -37 222q-3 -8 -6 -24q-8 -100 -20 -251q-1 -20 -22 -20h-36q-58 0 -82 25 q-20 21 -20 70q0 6 40 426q1 21 5 25q2 4 16 4l95 3q112 -3 124 -90l64 -340q130 393 140 412q8 15 35 15h78z" glyph-name="uni043C" unicode="м" horiz-adv-x="796"/>
<glyph d="M378 345q4 57 9 128q1 23 3 48q1 21 5 25q2 4 16 4h39q58 0 82 -24q20 -21 20 -67v-10q-2 -39 -13 -186.5t-19 -242.5q-1 -20 -22 -20h-36q-58 0 -82 25q-20 21 -20 70q0 2 9 128h-175q-7 -86 -16 -203q-1 -20 -22 -20h-36q-58 0 -82 25q-20 21 -20 70q0 6 30 426 q1 21 5 25q2 4 16 4h39q58 0 82 -24q20 -21 20 -67q0 -20 -6 -114h174z" glyph-name="uni043D" unicode="н" horiz-adv-x="600"/>
<glyph d="M29 240q0 138 64 220q77 100 236 100q235 0 235 -234q0 -128 -55 -215q-77 -121 -244 -121q-236 0 -236 250zM199 251q0 -128 81 -128q62 0 92 75q22 54 22 122q0 107 -82 107q-113 0 -113 -176z" glyph-name="uni043E" unicode="о" horiz-adv-x="598"/>
<glyph glyph-name="uni043F" unicode="п" d="M393 221q10 104 10 138q0 67 -61 67q-69 0 -96 -79q-28 -79 -45 -327q-1 -20 -22 -20h-36q-58 0 -82 25q-20 21 -20 70q0 6 30 426q1 22 5 26q3 3 16 3h39q98 0 104 -84q56 94 171 94q86 0 125 -39q40 -42 40 -142q0 -36 -13 -186q-14 -149 -14 -162q0 -21 -5 -26 q-4 -5 -22 -5h-32q-60 0 -83 23q-20 20 -20 65q0 28 11 133z"/>
<glyph d="M576 319q0 -152 -68 -242q-65 -87 -168 -87q-93 0 -130 88l-21 -243q-1 -20 -22 -20h-36q-58 0 -82 25q-20 21 -20 70q0 41 45 611q1 22 5 26q3 3 16 3h39q51 0 78 -23q25 -20 25 -53q44 86 150 86q189 0 189 -241zM215 263q0 -140 80 -140q45 0 72 42q29 46 29 132 q0 130 -82 130q-99 0 -99 -164z" glyph-name="uni0440" unicode="р" horiz-adv-x="612"/>
<glyph d="M381 149q42 26 47 26q23 0 23 -30q0 -52 -32 -89q-57 -66 -162 -66q-91 0 -152 52q-76 65 -76 198q0 116 48 199q70 121 227 121q93 0 143 -42q46 -38 46 -102q0 -105 -130 -105q-26 0 -26 14q-1 58 -6 75q-9 27 -40 27q-92 0 -92 -177q0 -70 23 -99q21 -28 71 -28 q46 0 88 26z" glyph-name="uni0441" unicode="с" horiz-adv-x="508"/>
<glyph d="M207 93l-6 -73q-1 -20 -22 -20h-36q-58 0 -82 25q-20 21 -20 70q0 6 30 426q1 22 5 26q3 3 16 3h39q97 0 103 -82q50 92 153 92q131 0 151 -103q55 103 161 103q155 0 155 -141q0 -48 -10 -174l-17 -214q-1 -22 -6 -26q-4 -5 -21 -5h-32q-60 0 -83 23q-20 20 -20 65 q0 31 11 147q10 116 10 125q0 66 -51 66q-93 0 -109 -224q-9 -119 -12 -171q-1 -22 -6 -26q-4 -5 -21 -5h-32q-60 0 -83 23q-20 20 -20 65q0 27 11 139q10 111 10 133q0 66 -51 66q-91 0 -108 -246q-2 -35 -7 -87z" glyph-name="uni0442" unicode="т" horiz-adv-x="902"/>
<glyph d="M223 341q-10 -84 -10 -102q0 -75 64 -75q95 0 110 179l16 187q1 20 22 20h36q102 0 102 -83q0 -28 -30 -438q-16 -224 -268 -224q-100 0 -167 34q-66 33 -66 82q0 36 31 56q28 18 71 18q3 0 29 -32q26 -33 93 -33q116 0 116 188q-49 -88 -158 -88q-166 0 -166 188 q0 30 21 301q2 31 28 31h32q60 0 83 -23q20 -21 20 -69q0 -33 -9 -117z" glyph-name="uni0443" unicode="у" horiz-adv-x="610"/>
<glyph d="M620 427q-101 0 -101 -168q0 -136 80 -136q45 0 72 42q29 46 29 132q0 130 -80 130zM192 295q-12 -85 10 -131q20 -43 65 -43q80 0 101 136q25 168 -76 168q-80 0 -100 -130zM381 473q14 189 14 238q0 21 2 25q3 4 18 4h38q101 0 101 -87q0 -30 -11 -181q48 88 142 88 q187 0 187 -245q0 -147 -67 -237q-64 -88 -164 -88q-90 0 -126 88q-13 -146 -20 -243q-1 -20 -22 -20h-35q-99 0 -99 86q0 28 11 171q-49 -84 -138 -84q-99 0 -150 88q-54 91 -33 237q36 245 223 245q92 0 129 -85z" glyph-name="uni0444" unicode="ф" horiz-adv-x="884"/>
<glyph d="M308 369q146 190 133 190q17 0 47 -39q34 -43 34 -81q0 -62 -155 -170q160 -240 160 -251q0 -18 -30 -18h-68q-93 0 -141 98l-40 80q-166 -189 -149 -189q-21 0 -51 27q-37 34 -37 79q0 43 42 83q36 36 134 95q-149 265 -149 256q0 21 63 21q72 0 109 -25q28 -19 52 -67z " glyph-name="uni0445" unicode="х" horiz-adv-x="555"/>
<glyph d="M532 157h30q15 1 29.5 -12t18.5 -45q10 -47 -2 -90q-1 -4 -4.5 -13.5t-12.5 -22.5q-41 -53 -151 -49q-12 -1 -4 15q22 59 -17 65q-56 16 -60 77q-53 -92 -154 -92q-74 0 -119 46q-42 44 -42 112q0 141 25 371q3 31 28 31h32q59 0 83 -23q20 -19 20 -62q0 -29 -10 -138 q-11 -110 -11 -129q0 -74 66 -74q69 0 94 156q8 52 14 134l8 116q2 20 22 20h36q58 0 82 -25q20 -21 20 -70q0 -5 -21 -298z" glyph-name="uni0446" unicode="ц" horiz-adv-x="615"/>
<glyph d="M361 256v1q-53 -92 -154 -92q-74 0 -119 46q-42 44 -42 112q-3 91 12 195q3 31 28 31h32q59 0 83 -23q20 -19 20 -62q0 -29 -4 -50.5t-4 -40.5q0 -74 66 -74q69 0 91 106l7 68q1 23 3 48q1 21 5 25q2 4 16 4h39q58 0 82 -24q20 -21 20 -67v-10q-2 -39 -13 -186.5 t-19 -242.5q-1 -20 -22 -20h-36q-58 0 -82 25q-20 21 -20 70q0 4 11 161z" glyph-name="uni0447" unicode="ч" horiz-adv-x="600"/>
<glyph d="M688 468l6 72q1 20 22 20h36q58 0 82 -25q20 -21 20 -70q0 -6 -30 -426q-1 -22 -5 -26q-3 -3 -16 -3h-39q-97 0 -103 82q-50 -92 -153 -92q-131 0 -151 103q-55 -103 -161 -103q-155 0 -155 141q0 48 10 174l17 214q1 22 6 26q4 5 21 5h32q60 0 83 -23q20 -20 20 -65 q0 -31 -10 -147q-11 -116 -11 -125q0 -66 51 -66q93 0 109 224q9 119 12 171q1 22 6 26q4 5 21 5h32q60 0 83 -23q20 -20 20 -65q0 -27 -10 -139q-11 -111 -11 -133q0 -66 51 -66q91 0 108 246q2 35 7 88z" glyph-name="uni0448" unicode="ш" horiz-adv-x="902"/>
<glyph d="M671 92q-50 -92 -153 -92q-131 0 -151 103q-55 -103 -161 -103q-155 0 -155 141q0 48 10 174l17 214q1 22 6 26q4 5 21 5h32q60 0 83 -23q20 -20 20 -65q0 -31 -10 -147q-11 -116 -11 -125q0 -66 51 -66q93 0 109 224q9 119 12 171q1 22 6 26q4 5 21 5h32q60 0 83 -23 q20 -20 20 -65q0 -27 -10 -139q-11 -111 -11 -133q0 -66 51 -66q91 0 108 246q2 35 7 88l6 72q1 20 22 20h36q58 0 82 -25q20 -21 20 -70q0 -5 -21 -308h30q15 1 29.5 -12t18.5 -45q10 -47 -2 -90q-1 -4 -4.5 -13.5t-12.5 -22.5q-41 -53 -151 -49q-12 -1 -4 15q22 59 -3 59 q-1 1 -18 8q-8 3 -14 7l-4 2q-34 23 -37 76z" glyph-name="uni0449" unicode="щ" horiz-adv-x="923"/>
<glyph d="M329 285q-22 -62 -21 -104q2 -74 72 -74q59 0 91 46q23 35 22 108q-3 65 -81 65q-55 0 -83 -41zM336 464q0 -12 -11 -48t6 -27q76 54 158 55.5t127 -36.5q54 -46 47 -136q-7 -139 -88 -208q-86 -74 -227 -74q-136 0 -187 81q-40 65 -23 211q8 72 25 131q-35 -13 -73 -5 q-55 12 -73 63q-17 91 86 130q15 6 20 -5q10 -31 44 -29v-1q12 1 6 1q82 6 108 -7.5t40 -34.5q4 -5 8 -11q9 -29 7 -50z" glyph-name="uni044A" unicode="ъ" horiz-adv-x="693"/>
<glyph d="M235 285q-23 -32 -21 -104q2 -74 73 -74q58 0 90 46q23 35 22 108q-3 65 -81 65q-55 0 -83 -41zM237 389q75 54 157.5 55.5t127.5 -36.5q54 -46 47 -136q-7 -139 -88 -208q-86 -74 -227 -74q-136 0 -187 81q-40 65 -23.5 211t30.5 238q3 20 7 23q2 4 16 4h39q58 0 81 -22 q18 -19 15 -61q0 -12 -6 -48t11 -27zM704 0q-59 0 -82 25q-20 21 -20 70q0 6 30 426q1 21 4 25t17 4h39q58 0 82 -24q20 -21 20 -67q0 -40 -32 -439q-1 -20 -22 -20h-36z" glyph-name="uni044B" unicode="ы" horiz-adv-x="843"/>
<glyph d="M244 285q-23 -32 -21 -104q2 -74 73 -74q58 0 90 46q23 35 22 108q-3 65 -81 65q-55 0 -83 -41zM246 389q75 54 157.5 55.5t127.5 -36.5q54 -46 47 -136q-7 -139 -88 -208q-86 -74 -227 -74q-136 0 -187 81q-40 65 -23.5 211t30.5 238q3 20 7 23q2 4 16 4h39q58 0 81 -22 q18 -19 15 -61q0 -12 -6 -48t11 -27z" glyph-name="uni044C" unicode="ь" horiz-adv-x="603"/>
<glyph d="M320 331q0 96 -68 96q-77 -7 -110 -65q-3 -14 -29 -14q-53 26 -48 83q12 64 47 87q58 42 151 42q158 0 206 -121q32 -83 11 -199q-23 -133 -111 -198q-70 -52 -162 -52q-105 0 -150 66q-25 37 -16 89q6 30 29 30q4 0 42 -26t83 -26q50 0 77 28q19 20 31 58h-161 q-11 0 -11 11l2 41q4 70 72 70h115z" glyph-name="uni044D" unicode="э" horiz-adv-x="508"/>
<glyph d="M413 251q0 -128 73 -128q56 0 83 75q20 54 20 122q0 107 -74 107q-102 0 -102 -176zM270 345q14 67 48 115q69 100 212 100q212 0 212 -234q0 -128 -50 -215q-69 -121 -219 -121q-206 0 -213 233h-51q-7 -86 -16 -203q-1 -20 -22 -20h-36q-58 0 -82 25q-20 21 -20 70 q0 6 30 426q1 21 5 25q2 4 16 4h39q58 0 82 -24q20 -21 20 -67q0 -20 -8 -117q26 -16 53 3z" glyph-name="uni044E" unicode="ю" horiz-adv-x="776"/>
<glyph d="M381 305q18 68 -6 107q-19 37 -63 37q-59 0 -76 -52q-30 -92 145 -92zM371 192q-79 -167 -226 -194q-70 0 -94 40q-30 40 -21 70q79 2 202 94q-170 9 -175 182q23 183 222 176q94 0 114 -49q1 4 1 10q1 21 5 25q2 4 16 4h39q58 0 82 -24q20 -21 20 -67q0 -40 -32 -439 q-1 -20 -22 -20h-36q-58 0 -82 25q-20 21 -20 70q0 4 7 97z" glyph-name="uni044F" unicode="я" horiz-adv-x="585"/>
<glyph d="M107 39q-79 60 -79 185q0 118 52 206q76 130 245 130q188 0 188 -150q0 -117 -132 -165q-77 -28 -181 -28q0 -43 22 -70q25 -32 73 -32q40 0 64 28q24 27 33 27q21 0 43 -13q33 -20 33 -58q0 -54 -65 -84q-54 -25 -131 -25q-102 0 -165 49zM203 297q63 1 100 21 q39 21 39 57q0 52 -51 52q-72 0 -88 -130zM165 734q24 21 65 21q69 0 69 -58q0 -34 -23 -55q-25 -23 -67 -23q-68 0 -68 58q0 36 24 57zM393 734q24 21 65 21q69 0 69 -58q0 -34 -23 -55q-25 -23 -67 -23q-68 0 -68 58q0 36 24 57z" glyph-name="uni0451" unicode="ё" horiz-adv-x="532"/>
</font>
</defs>
</svg>
